{"accessors":[{"bufferView":0,"byteOffset":0,"componentType":5126,"count":1,"max":[0],"min":[0],"type":"SCALAR"},{"bufferView":1,"byteOffset":0,"componentType":5123,"count":96,"type":"SCALAR"},{"bufferView":2,"byteOffset":0,"componentType":5126,"count":96,"max":[0.0933250114321709,0.0981240347027779,0.0795262232422829],"min":[-0.09808217734098,-0.09574544429779,-0.07238452881575],"type":"VEC3"},{"bufferView":3,"byteOffset":0,"componentType":5126,"count":96,"type":"VEC3"},{"bufferView":4,"byteOffset":0,"componentType":5126,"count":96,"type":"VEC2"}],"animations":[{"channels":[],"name":"Take 001","samplers":[]}],"asset":{"generator":"FBX2glTF v0.13.1","version":"2.0"},"bufferViews":[{"buffer":0,"byteLength":4,"byteOffset":0},{"buffer":0,"byteLength":192,"byteOffset":4,"target":34963},{"buffer":0,"byteLength":1152,"byteOffset":196,"target":34962},{"buffer":0,"byteLength":1152,"byteOffset":1348,"target":34962},{"buffer":0,"byteLength":768,"byteOffset":2500,"target":34962}],"buffers":[{"byteLength":3268,"uri":"SM_Particle_Smoke_01.bin"}],"materials":[{"alphaMode":"OPAQUE","doubleSided":false,"extras":{"fromFBX":{"isTruePBR":false,"shadingModel":"Lambert"}},"name":"lambert3","pbrMetallicRoughness":{"baseColorFactor":[0.400000005960464,0.400000005960464,0.400000005960464,1],"metallicFactor":0.200000002980232,"roughnessFactor":0.800000011920929}}],"meshes":[{"name":"SM_Particle_Smoke_01","primitives":[{"attributes":{"NORMAL":3,"POSITION":2,"TEXCOORD_0":4},"indices":1,"material":0,"mode":4}]}],"nodes":[{"mesh":0,"name":"SM_Particle_Smoke_01","rotation":[-0.70710676908493,-0,0,0.70710676908493],"scale":[1,1,1],"translation":[0,0,-0.04999999701977]}],"samplers":[{}],"scene":0,"scenes":[{"name":"Root Scene","nodes":[0]}]}