{"accessors":[{"bufferView":0,"byteOffset":0,"componentType":5126,"count":1,"max":[0],"min":[0],"type":"SCALAR"},{"bufferView":1,"byteOffset":0,"componentType":5123,"count":1656,"type":"SCALAR"},{"bufferView":2,"byteOffset":0,"componentType":5126,"count":324,"max":[297.029632568359,0,297.029571533203],"min":[-297.029541015625,-297.029632568359,-297.029479980469],"type":"VEC3"},{"bufferView":3,"byteOffset":0,"componentType":5126,"count":324,"type":"VEC3"},{"bufferView":4,"byteOffset":0,"componentType":5126,"count":324,"type":"VEC2"}],"animations":[{"channels":[],"name":"Take 001","samplers":[]}],"asset":{"generator":"FBX2glTF v0.13.1","version":"2.0"},"bufferViews":[{"buffer":0,"byteLength":4,"byteOffset":0},{"buffer":0,"byteLength":3312,"byteOffset":4,"target":34963},{"buffer":0,"byteLength":3888,"byteOffset":3316,"target":34962},{"buffer":0,"byteLength":3888,"byteOffset":7204,"target":34962},{"buffer":0,"byteLength":2592,"byteOffset":11092,"target":34962}],"buffers":[{"byteLength":13684,"uri":"MountainSkybox.bin"}],"images":[{"name":"PolygonNature","uri":"PolygonNature.png"}],"materials":[{"alphaMode":"OPAQUE","doubleSided":false,"extras":{"fromFBX":{"isTruePBR":false,"shadingModel":"Lambert"}},"name":"lambert1","pbrMetallicRoughness":{"baseColorFactor":[0.800000011920929,0.800000011920929,0.800000011920929,1],"baseColorTexture":{"index":0,"texCoord":0},"metallicFactor":0.200000002980232,"roughnessFactor":0.800000011920929}}],"meshes":[{"name":"MountainSkybox","primitives":[{"attributes":{"NORMAL":3,"POSITION":2,"TEXCOORD_0":4},"indices":1,"material":0,"mode":4}]}],"nodes":[{"mesh":0,"name":"MountainSkybox","rotation":[0,0,0,1],"scale":[1,1,1],"translation":[0,0,0]}],"samplers":[{}],"scene":0,"scenes":[{"name":"Root Scene","nodes":[0]}],"textures":[{"name":"file7","sampler":0,"source":0}]}