{"accessors":[{"bufferView":0,"byteOffset":0,"componentType":5126,"count":1,"max":[0],"min":[0],"type":"SCALAR"},{"bufferView":1,"byteOffset":0,"componentType":5123,"count":24,"type":"SCALAR"},{"bufferView":2,"byteOffset":0,"componentType":5126,"count":10,"max":[3.75,0.000000000000000555111512312578,2.5],"min":[0,-10,-2.5],"type":"VEC3"},{"bufferView":3,"byteOffset":0,"componentType":5126,"count":10,"type":"VEC3"},{"bufferView":4,"byteOffset":0,"componentType":5126,"count":10,"type":"VEC2"}],"animations":[{"channels":[],"name":"Take 001","samplers":[]}],"asset":{"generator":"FBX2glTF v0.13.1","version":"2.0"},"bufferViews":[{"buffer":0,"byteLength":4,"byteOffset":0},{"buffer":0,"byteLength":48,"byteOffset":4,"target":34963},{"buffer":0,"byteLength":120,"byteOffset":52,"target":34962},{"buffer":0,"byteLength":120,"byteOffset":172,"target":34962},{"buffer":0,"byteLength":80,"byteOffset":292,"target":34962}],"buffers":[{"byteLength":372,"uri":"River_Plane_WaterFall_01.bin"}],"materials":[{"alphaMode":"OPAQUE","doubleSided":false,"extras":{"fromFBX":{"isTruePBR":false,"shadingModel":"Lambert"}},"name":"lambert859","pbrMetallicRoughness":{"baseColorFactor":[0.400000005960464,0.400000005960464,0.400000005960464,1],"metallicFactor":0.200000002980232,"roughnessFactor":0.800000011920929}}],"meshes":[{"name":"River_Plane_WaterFall_01","primitives":[{"attributes":{"NORMAL":3,"POSITION":2,"TEXCOORD_0":4},"indices":1,"material":0,"mode":4}]}],"nodes":[{"mesh":0,"name":"River_Plane_WaterFall_01","rotation":[0,0,0,1],"scale":[1,1,1],"translation":[0,0,0]}],"samplers":[{}],"scene":0,"scenes":[{"name":"Root Scene","nodes":[0]}]}