{"accessors":[{"bufferView":0,"byteOffset":0,"componentType":5126,"count":1,"max":[0],"min":[0],"type":"SCALAR"},{"bufferView":1,"byteOffset":0,"componentType":5123,"count":126,"type":"SCALAR"},{"bufferView":2,"byteOffset":0,"componentType":5126,"count":126,"max":[0.00191221234854311,0.00245700823143125,0.00178503035567701],"min":[-0.00107459060382,-0.00060614582617,-0.00103229517117],"type":"VEC3"},{"bufferView":3,"byteOffset":0,"componentType":5126,"count":126,"type":"VEC3"},{"bufferView":4,"byteOffset":0,"componentType":5126,"count":126,"type":"VEC4"},{"bufferView":5,"byteOffset":0,"componentType":5126,"count":126,"type":"VEC2"}],"animations":[{"channels":[],"name":"Take 001","samplers":[]}],"asset":{"generator":"FBX2glTF v0.13.1","version":"2.0"},"bufferViews":[{"buffer":0,"byteLength":4,"byteOffset":0},{"buffer":0,"byteLength":252,"byteOffset":4,"target":34963},{"buffer":0,"byteLength":1512,"byteOffset":256,"target":34962},{"buffer":0,"byteLength":1512,"byteOffset":1768,"target":34962},{"buffer":0,"byteLength":2016,"byteOffset":3280,"target":34962},{"buffer":0,"byteLength":1008,"byteOffset":5296,"target":34962}],"buffers":[{"byteLength":6304,"uri":"SM_Plant_Grass_01.bin"}],"images":[{"name":"PolygonNature","uri":"PolygonNature.png"}],"materials":[{"alphaMode":"OPAQUE","doubleSided":false,"extras":{"fromFBX":{"isTruePBR":false,"shadingModel":"Lambert"}},"name":"lambert2","pbrMetallicRoughness":{"baseColorFactor":[0.800000011920929,0.800000011920929,0.800000011920929,1],"baseColorTexture":{"index":0,"texCoord":0},"metallicFactor":0.200000002980232,"roughnessFactor":0.800000011920929}}],"meshes":[{"name":"SM_Plant_Grass_01","primitives":[{"attributes":{"COLOR_0":4,"NORMAL":3,"POSITION":2,"TEXCOORD_0":5},"indices":1,"material":0,"mode":4}]}],"nodes":[{"mesh":0,"name":"SM_Plant_Grass_01","rotation":[0,0,0,1],"scale":[0.00999999977648258,0.00999999977648258,0.00999999977648258],"translation":[0,0,0]}],"samplers":[{}],"scene":0,"scenes":[{"name":"Root Scene","nodes":[0]}],"textures":[{"name":"file1","sampler":0,"source":0}]}