{"accessors":[{"bufferView":0,"byteOffset":0,"componentType":5126,"count":1,"max":[0],"min":[0],"type":"SCALAR"},{"bufferView":1,"byteOffset":0,"componentType":5123,"count":3756,"type":"SCALAR"},{"bufferView":2,"byteOffset":0,"componentType":5126,"count":3724,"max":[0.109168767929077,1.07624471187592,0.318374633789062],"min":[-4.15793800354004,0,-0.31837558746338],"type":"VEC3"},{"bufferView":3,"byteOffset":0,"componentType":5126,"count":3724,"type":"VEC3"},{"bufferView":4,"byteOffset":0,"componentType":5126,"count":3724,"type":"VEC2"}],"animations":[{"channels":[],"name":"Take 001","samplers":[]}],"asset":{"generator":"FBX2glTF v0.13.1","version":"2.0"},"bufferViews":[{"buffer":0,"byteLength":4,"byteOffset":0},{"buffer":0,"byteLength":7512,"byteOffset":4,"target":34963},{"buffer":0,"byteLength":44688,"byteOffset":7516,"target":34962},{"buffer":0,"byteLength":44688,"byteOffset":52204,"target":34962},{"buffer":0,"byteLength":29792,"byteOffset":96892,"target":34962}],"buffers":[{"byteLength":126684,"uri":"SM_Prop_StoneWall_02.bin"}],"images":[{"name":"PolygonNature","uri":"PolygonNature.png"}],"materials":[{"alphaMode":"OPAQUE","doubleSided":false,"extras":{"fromFBX":{"isTruePBR":false,"shadingModel":"Lambert"}},"name":"lambert1","pbrMetallicRoughness":{"baseColorFactor":[0.800000011920929,0.800000011920929,0.800000011920929,1],"baseColorTexture":{"index":0,"texCoord":0},"metallicFactor":0.200000002980232,"roughnessFactor":0.800000011920929}}],"meshes":[{"name":"SM_Prop_StoneWall_02","primitives":[{"attributes":{"NORMAL":3,"POSITION":2,"TEXCOORD_0":4},"indices":1,"material":0,"mode":4}]}],"nodes":[{"mesh":0,"name":"SM_Prop_StoneWall_02","rotation":[0,0,0,1],"scale":[1,1,1],"translation":[0,0,0]}],"samplers":[{}],"scene":0,"scenes":[{"name":"Root Scene","nodes":[0]}],"textures":[{"name":"file7","sampler":0,"source":0}]}