{"accessors":[{"bufferView":0,"byteOffset":0,"componentType":5126,"count":1,"max":[0],"min":[0],"type":"SCALAR"},{"bufferView":1,"byteOffset":0,"componentType":5123,"count":618,"type":"SCALAR"},{"bufferView":2,"byteOffset":0,"componentType":5126,"count":580,"max":[0.191995203495026,0.331427156925201,0.173977747559547],"min":[-0.19199520349503,-0.14554546773434,-0.17397773265839],"type":"VEC3"},{"bufferView":3,"byteOffset":0,"componentType":5126,"count":580,"type":"VEC3"},{"bufferView":4,"byteOffset":0,"componentType":5126,"count":580,"type":"VEC2"}],"animations":[{"channels":[],"name":"Take 001","samplers":[]}],"asset":{"generator":"FBX2glTF v0.13.1","version":"2.0"},"bufferViews":[{"buffer":0,"byteLength":4,"byteOffset":0},{"buffer":0,"byteLength":1236,"byteOffset":4,"target":34963},{"buffer":0,"byteLength":6960,"byteOffset":1240,"target":34962},{"buffer":0,"byteLength":6960,"byteOffset":8200,"target":34962},{"buffer":0,"byteLength":4640,"byteOffset":15160,"target":34962}],"buffers":[{"byteLength":19800,"uri":"SM_Plant_Mushrooms_05.bin"}],"images":[{"name":"PolygonNature","uri":"PolygonNature.png"}],"materials":[{"alphaMode":"OPAQUE","doubleSided":false,"extras":{"fromFBX":{"isTruePBR":false,"shadingModel":"Lambert"}},"name":"lambert1","pbrMetallicRoughness":{"baseColorFactor":[0.800000011920929,0.800000011920929,0.800000011920929,1],"baseColorTexture":{"index":0,"texCoord":0},"metallicFactor":0.200000002980232,"roughnessFactor":0.800000011920929}}],"meshes":[{"name":"SM_Plant_Mushrooms_05","primitives":[{"attributes":{"NORMAL":3,"POSITION":2,"TEXCOORD_0":4},"indices":1,"material":0,"mode":4}]}],"nodes":[{"mesh":0,"name":"SM_Plant_Mushrooms_05","rotation":[0,0,0,1],"scale":[1,1,1],"translation":[0,0,0]}],"samplers":[{}],"scene":0,"scenes":[{"name":"Root Scene","nodes":[0]}],"textures":[{"name":"file8","sampler":0,"source":0}]}