{"accessors":[{"bufferView":0,"byteOffset":0,"componentType":5126,"count":1,"max":[0],"min":[0],"type":"SCALAR"},{"bufferView":1,"byteOffset":0,"componentType":5123,"count":8208,"type":"SCALAR"},{"bufferView":2,"byteOffset":0,"componentType":5126,"count":5752,"max":[0.643312990665436,0.248001515865326,0.979936122894287],"min":[-0.64331299066544,-0.15871971845627,-0.97994208335876],"type":"VEC3"},{"bufferView":3,"byteOffset":0,"componentType":5126,"count":5752,"type":"VEC3"},{"bufferView":4,"byteOffset":0,"componentType":5126,"count":5752,"type":"VEC4"},{"bufferView":5,"byteOffset":0,"componentType":5126,"count":5752,"type":"VEC2"},{"bufferView":6,"byteOffset":0,"componentType":5126,"count":5752,"type":"VEC2"}],"animations":[{"channels":[],"name":"Take 001","samplers":[]}],"asset":{"generator":"FBX2glTF v0.13.1","version":"2.0"},"bufferViews":[{"buffer":0,"byteLength":4,"byteOffset":0},{"buffer":0,"byteLength":16416,"byteOffset":4,"target":34963},{"buffer":0,"byteLength":69024,"byteOffset":16420,"target":34962},{"buffer":0,"byteLength":69024,"byteOffset":85444,"target":34962},{"buffer":0,"byteLength":92032,"byteOffset":154468,"target":34962},{"buffer":0,"byteLength":46016,"byteOffset":246500,"target":34962},{"buffer":0,"byteLength":46016,"byteOffset":292516,"target":34962}],"buffers":[{"byteLength":338532,"uri":"SM_Prop_Skeleton_Ground_01.bin"}],"images":[{"name":"PolygonNature","uri":"PolygonNature.png"}],"materials":[{"alphaMode":"OPAQUE","doubleSided":false,"extras":{"fromFBX":{"isTruePBR":false,"shadingModel":"Lambert"}},"name":"lambert2","pbrMetallicRoughness":{"baseColorFactor":[0.800000011920929,0.800000011920929,0.800000011920929,1],"baseColorTexture":{"index":0,"texCoord":0},"metallicFactor":0.200000002980232,"roughnessFactor":0.800000011920929}}],"meshes":[{"name":"SM_Prop_Skeleton_Ground_01","primitives":[{"attributes":{"COLOR_0":4,"NORMAL":3,"POSITION":2,"TEXCOORD_0":5,"TEXCOORD_1":6},"indices":1,"material":0,"mode":4}]}],"nodes":[{"mesh":0,"name":"SM_Prop_Skeleton_Ground_01","rotation":[0,0,0,1],"scale":[1,1,1],"translation":[0,0,0]}],"samplers":[{}],"scene":0,"scenes":[{"name":"Root Scene","nodes":[0]}],"textures":[{"name":"file1","sampler":0,"source":0}]}