{"accessors":[{"bufferView":0,"byteOffset":0,"componentType":5126,"count":1,"max":[0],"min":[0],"type":"SCALAR"},{"bufferView":1,"byteOffset":0,"componentType":5123,"count":2496,"type":"SCALAR"},{"bufferView":2,"byteOffset":0,"componentType":5126,"count":1890,"max":[0.523377418518066,1.03017818927765,0.567752420902252],"min":[-0.52964347600937,-0.0586668998003,-0.50573927164078],"type":"VEC3"},{"bufferView":3,"byteOffset":0,"componentType":5126,"count":1890,"type":"VEC3"},{"bufferView":4,"byteOffset":0,"componentType":5126,"count":1890,"type":"VEC4"},{"bufferView":5,"byteOffset":0,"componentType":5126,"count":1890,"type":"VEC2"}],"animations":[{"channels":[],"name":"Take 001","samplers":[]}],"asset":{"generator":"FBX2glTF v0.13.1","version":"2.0"},"bufferViews":[{"buffer":0,"byteLength":4,"byteOffset":0},{"buffer":0,"byteLength":4992,"byteOffset":4,"target":34963},{"buffer":0,"byteLength":22680,"byteOffset":4996,"target":34962},{"buffer":0,"byteLength":22680,"byteOffset":27676,"target":34962},{"buffer":0,"byteLength":30240,"byteOffset":50356,"target":34962},{"buffer":0,"byteLength":15120,"byteOffset":80596,"target":34962}],"buffers":[{"byteLength":95716,"uri":"SM_Plant_06.bin"}],"images":[{"name":"PolygonNature","uri":"PolygonNature.png"}],"materials":[{"alphaMode":"OPAQUE","doubleSided":false,"extras":{"fromFBX":{"isTruePBR":false,"shadingModel":"Lambert"}},"name":"lambert2","pbrMetallicRoughness":{"baseColorFactor":[0.800000011920929,0.800000011920929,0.800000011920929,1],"baseColorTexture":{"index":0,"texCoord":0},"metallicFactor":0.200000002980232,"roughnessFactor":0.800000011920929}}],"meshes":[{"name":"SM_Plant_06","primitives":[{"attributes":{"COLOR_0":4,"NORMAL":3,"POSITION":2,"TEXCOORD_0":5},"indices":1,"material":0,"mode":4}]}],"nodes":[{"mesh":0,"name":"SM_Plant_06","rotation":[0,0,0,1],"scale":[1,1,1],"translation":[0,0,0]}],"samplers":[{}],"scene":0,"scenes":[{"name":"Root Scene","nodes":[0]}],"textures":[{"name":"file1","sampler":0,"source":0}]}