{"accessors":[{"bufferView":0,"byteOffset":0,"componentType":5126,"count":1,"max":[0],"min":[0],"type":"SCALAR"},{"bufferView":1,"byteOffset":0,"componentType":5123,"count":1272,"type":"SCALAR"},{"bufferView":2,"byteOffset":0,"componentType":5126,"count":732,"max":[0.870475769042969,0.714256346225739,0.939033508300781],"min":[-0.87047576904297,0,-0.93902969360352],"type":"VEC3"},{"bufferView":3,"byteOffset":0,"componentType":5126,"count":732,"type":"VEC3"},{"bufferView":4,"byteOffset":0,"componentType":5126,"count":732,"type":"VEC2"}],"animations":[{"channels":[],"name":"Take 001","samplers":[]}],"asset":{"generator":"FBX2glTF v0.13.1","version":"2.0"},"bufferViews":[{"buffer":0,"byteLength":4,"byteOffset":0},{"buffer":0,"byteLength":2544,"byteOffset":4,"target":34963},{"buffer":0,"byteLength":8784,"byteOffset":2548,"target":34962},{"buffer":0,"byteLength":8784,"byteOffset":11332,"target":34962},{"buffer":0,"byteLength":5856,"byteOffset":20116,"target":34962}],"buffers":[{"byteLength":25972,"uri":"SM_Plant_Lillypad_Small_01.bin"}],"images":[{"name":"PolygonNature","uri":"PolygonNature.png"}],"materials":[{"alphaMode":"OPAQUE","doubleSided":false,"extras":{"fromFBX":{"isTruePBR":false,"shadingModel":"Lambert"}},"name":"lambert2","pbrMetallicRoughness":{"baseColorFactor":[0.800000011920929,0.800000011920929,0.800000011920929,1],"baseColorTexture":{"index":0,"texCoord":0},"metallicFactor":0.200000002980232,"roughnessFactor":0.800000011920929}}],"meshes":[{"name":"SM_Plant_Lillypad_Small_01","primitives":[{"attributes":{"NORMAL":3,"POSITION":2,"TEXCOORD_0":4},"indices":1,"material":0,"mode":4}]}],"nodes":[{"mesh":0,"name":"SM_Plant_Lillypad_Small_01","rotation":[0,0,0,1],"scale":[1,1,1],"translation":[0,0,0]}],"samplers":[{}],"scene":0,"scenes":[{"name":"Root Scene","nodes":[0]}],"textures":[{"name":"file1","sampler":0,"source":0}]}