{"accessors":[{"bufferView":0,"byteOffset":0,"componentType":5126,"count":1,"max":[0],"min":[0],"type":"SCALAR"},{"bufferView":1,"byteOffset":0,"componentType":5123,"count":630,"type":"SCALAR"},{"bufferView":2,"byteOffset":0,"componentType":5126,"count":450,"max":[0.537910461425781,0.628982543945312,0.521797180175781],"min":[-0.61241912841797,-0.00479698181152,-0.53106689453125],"type":"VEC3"},{"bufferView":3,"byteOffset":0,"componentType":5126,"count":450,"type":"VEC3"},{"bufferView":4,"byteOffset":0,"componentType":5126,"count":450,"type":"VEC4"},{"bufferView":5,"byteOffset":0,"componentType":5126,"count":450,"type":"VEC2"}],"animations":[{"channels":[],"name":"Take 001","samplers":[]}],"asset":{"generator":"FBX2glTF v0.13.1","version":"2.0"},"bufferViews":[{"buffer":0,"byteLength":4,"byteOffset":0},{"buffer":0,"byteLength":1260,"byteOffset":4,"target":34963},{"buffer":0,"byteLength":5400,"byteOffset":1264,"target":34962},{"buffer":0,"byteLength":5400,"byteOffset":6664,"target":34962},{"buffer":0,"byteLength":7200,"byteOffset":12064,"target":34962},{"buffer":0,"byteLength":3600,"byteOffset":19264,"target":34962}],"buffers":[{"byteLength":22864,"uri":"SM_Plant_Fern_02.bin"}],"images":[{"name":"PolygonNature","uri":"PolygonNature.png"}],"materials":[{"alphaMode":"OPAQUE","doubleSided":false,"extras":{"fromFBX":{"isTruePBR":false,"shadingModel":"Lambert"}},"name":"Tree","pbrMetallicRoughness":{"baseColorFactor":[0.800000011920929,0.800000011920929,0.800000011920929,1],"baseColorTexture":{"index":0,"texCoord":0},"metallicFactor":0.200000002980232,"roughnessFactor":0.800000011920929}}],"meshes":[{"name":"SM_Plant_Fern_02","primitives":[{"attributes":{"COLOR_0":4,"NORMAL":3,"POSITION":2,"TEXCOORD_0":5},"indices":1,"material":0,"mode":4}]}],"nodes":[{"mesh":0,"name":"SM_Plant_Fern_02","rotation":[0,0,0,1],"scale":[1,1,1],"translation":[0,0,0]}],"samplers":[{}],"scene":0,"scenes":[{"name":"Root Scene","nodes":[0]}],"textures":[{"name":"file1009","sampler":0,"source":0}]}