{"accessors":[{"bufferView":0,"byteOffset":0,"componentType":5126,"count":1,"max":[0],"min":[0],"type":"SCALAR"},{"bufferView":1,"byteOffset":0,"componentType":5123,"count":360,"type":"SCALAR"},{"bufferView":2,"byteOffset":0,"componentType":5126,"count":168,"max":[0.778770446777344,1.41738891601562,0.773955345153809],"min":[-0.84255218505859,-0.10570073127747,-0.96794509887695],"type":"VEC3"},{"bufferView":3,"byteOffset":0,"componentType":5126,"count":168,"type":"VEC3"},{"bufferView":4,"byteOffset":0,"componentType":5126,"count":168,"type":"VEC4"},{"bufferView":5,"byteOffset":0,"componentType":5126,"count":168,"type":"VEC2"}],"animations":[{"channels":[],"name":"Take 001","samplers":[]}],"asset":{"generator":"FBX2glTF v0.13.1","version":"2.0"},"bufferViews":[{"buffer":0,"byteLength":4,"byteOffset":0},{"buffer":0,"byteLength":720,"byteOffset":4,"target":34963},{"buffer":0,"byteLength":2016,"byteOffset":724,"target":34962},{"buffer":0,"byteLength":2016,"byteOffset":2740,"target":34962},{"buffer":0,"byteLength":2688,"byteOffset":4756,"target":34962},{"buffer":0,"byteLength":1344,"byteOffset":7444,"target":34962}],"buffers":[{"byteLength":8788,"uri":"SM_Plant_Bush_Leaves_03.bin"}],"materials":[{"alphaMode":"OPAQUE","doubleSided":false,"extras":{"fromFBX":{"isTruePBR":false,"shadingModel":"Lambert"}},"name":"Tree2","pbrMetallicRoughness":{"baseColorFactor":[0.400000005960464,0.400000005960464,0.400000005960464,1],"metallicFactor":0.200000002980232,"roughnessFactor":0.800000011920929}}],"meshes":[{"name":"SM_Plant_Bush_Leaves_03","primitives":[{"attributes":{"COLOR_0":4,"NORMAL":3,"POSITION":2,"TEXCOORD_0":5},"indices":1,"material":0,"mode":4}]}],"nodes":[{"mesh":0,"name":"SM_Plant_Bush_Leaves_03","rotation":[0,0,0,1],"scale":[1,1,1],"translation":[0,0,0]}],"samplers":[{}],"scene":0,"scenes":[{"name":"Root Scene","nodes":[0]}]}