{"accessors":[{"bufferView":0,"byteOffset":0,"componentType":5126,"count":1,"max":[0],"min":[0],"type":"SCALAR"},{"bufferView":1,"byteOffset":0,"componentType":5123,"count":1656,"type":"SCALAR"},{"bufferView":2,"byteOffset":0,"componentType":5126,"count":1332,"max":[0.170039594173431,0.252296715974808,0.237375527620316],"min":[-0.16474288702011,-0.29044157266617,-0.07934100180864],"type":"VEC3"},{"bufferView":3,"byteOffset":0,"componentType":5126,"count":1332,"type":"VEC3"},{"bufferView":4,"byteOffset":0,"componentType":5126,"count":1332,"type":"VEC2"}],"animations":[{"channels":[],"name":"Take 001","samplers":[]}],"asset":{"generator":"FBX2glTF v0.13.1","version":"2.0"},"bufferViews":[{"buffer":0,"byteLength":4,"byteOffset":0},{"buffer":0,"byteLength":3312,"byteOffset":4,"target":34963},{"buffer":0,"byteLength":15984,"byteOffset":3316,"target":34962},{"buffer":0,"byteLength":15984,"byteOffset":19300,"target":34962},{"buffer":0,"byteLength":10656,"byteOffset":35284,"target":34962}],"buffers":[{"byteLength":45940,"uri":"SM_Plant_Mushrooms_01.bin"}],"images":[{"name":"PolygonNature","uri":"PolygonNature.png"}],"materials":[{"alphaMode":"OPAQUE","doubleSided":false,"extras":{"fromFBX":{"isTruePBR":false,"shadingModel":"Lambert"}},"name":"lambert1","pbrMetallicRoughness":{"baseColorFactor":[0.800000011920929,0.800000011920929,0.800000011920929,1],"baseColorTexture":{"index":0,"texCoord":0},"metallicFactor":0.200000002980232,"roughnessFactor":0.800000011920929}}],"meshes":[{"name":"SM_Plant_Mushrooms_01","primitives":[{"attributes":{"NORMAL":3,"POSITION":2,"TEXCOORD_0":4},"indices":1,"material":0,"mode":4}]}],"nodes":[{"mesh":0,"name":"SM_Plant_Mushrooms_01","rotation":[0,0,0,1],"scale":[1,1,1],"translation":[0,0,0]}],"samplers":[{}],"scene":0,"scenes":[{"name":"Root Scene","nodes":[0]}],"textures":[{"name":"file8","sampler":0,"source":0}]}