{"accessors":[{"bufferView":0,"byteOffset":0,"componentType":5126,"count":1,"max":[0],"min":[0],"type":"SCALAR"},{"bufferView":1,"byteOffset":0,"componentType":5123,"count":249,"type":"SCALAR"},{"bufferView":2,"byteOffset":0,"componentType":5126,"count":179,"max":[0.373558044433594,0.0996514782309532,0.385364532470703],"min":[-0.37356185913086,0,-0.38536071777344],"type":"VEC3"},{"bufferView":3,"byteOffset":0,"componentType":5126,"count":179,"type":"VEC3"},{"bufferView":4,"byteOffset":0,"componentType":5126,"count":179,"type":"VEC2"}],"animations":[{"channels":[],"name":"Take 001","samplers":[]}],"asset":{"generator":"FBX2glTF v0.13.1","version":"2.0"},"bufferViews":[{"buffer":0,"byteLength":4,"byteOffset":0},{"buffer":0,"byteLength":498,"byteOffset":4,"target":34963},{"buffer":0,"byteLength":2148,"byteOffset":504,"target":34962},{"buffer":0,"byteLength":2148,"byteOffset":2652,"target":34962},{"buffer":0,"byteLength":1432,"byteOffset":4800,"target":34962}],"buffers":[{"byteLength":6232,"uri":"SM_Plant_Lillypad_Large_03.bin"}],"images":[{"name":"PolygonNature","uri":"PolygonNature.png"}],"materials":[{"alphaMode":"OPAQUE","doubleSided":false,"extras":{"fromFBX":{"isTruePBR":false,"shadingModel":"Lambert"}},"name":"lambert2","pbrMetallicRoughness":{"baseColorFactor":[0.800000011920929,0.800000011920929,0.800000011920929,1],"baseColorTexture":{"index":0,"texCoord":0},"metallicFactor":0.200000002980232,"roughnessFactor":0.800000011920929}}],"meshes":[{"name":"SM_Plant_Lillypad_Large_03","primitives":[{"attributes":{"NORMAL":3,"POSITION":2,"TEXCOORD_0":4},"indices":1,"material":0,"mode":4}]}],"nodes":[{"mesh":0,"name":"SM_Plant_Lillypad_Large_03","rotation":[0,0,0,1],"scale":[1,1,1],"translation":[0,0,0]}],"samplers":[{}],"scene":0,"scenes":[{"name":"Root Scene","nodes":[0]}],"textures":[{"name":"file1","sampler":0,"source":0}]}