{"accessors":[{"bufferView":0,"byteOffset":0,"componentType":5126,"count":1,"max":[0],"min":[0],"type":"SCALAR"},{"bufferView":1,"byteOffset":0,"componentType":5123,"count":270,"type":"SCALAR"},{"bufferView":2,"byteOffset":0,"componentType":5126,"count":126,"max":[0.681289672851562,1.09355163574219,0.497039794921875],"min":[-0.46750640869141,-0.07429885864258,-0.52197265625],"type":"VEC3"},{"bufferView":3,"byteOffset":0,"componentType":5126,"count":126,"type":"VEC3"},{"bufferView":4,"byteOffset":0,"componentType":5126,"count":126,"type":"VEC4"},{"bufferView":5,"byteOffset":0,"componentType":5126,"count":126,"type":"VEC2"}],"animations":[{"channels":[],"name":"Take 001","samplers":[]}],"asset":{"generator":"FBX2glTF v0.13.1","version":"2.0"},"bufferViews":[{"buffer":0,"byteLength":4,"byteOffset":0},{"buffer":0,"byteLength":540,"byteOffset":4,"target":34963},{"buffer":0,"byteLength":1512,"byteOffset":544,"target":34962},{"buffer":0,"byteLength":1512,"byteOffset":2056,"target":34962},{"buffer":0,"byteLength":2016,"byteOffset":3568,"target":34962},{"buffer":0,"byteLength":1008,"byteOffset":5584,"target":34962}],"buffers":[{"byteLength":6592,"uri":"SM_Plant_Bush_Leaves_01.bin"}],"images":[{"name":"PolygonNature","uri":"PolygonNature.png"}],"materials":[{"alphaMode":"OPAQUE","doubleSided":false,"extras":{"fromFBX":{"isTruePBR":false,"shadingModel":"Lambert"}},"name":"Tree3","pbrMetallicRoughness":{"baseColorFactor":[0.800000011920929,0.800000011920929,0.800000011920929,1],"baseColorTexture":{"index":0,"texCoord":0},"metallicFactor":0.200000002980232,"roughnessFactor":0.800000011920929}}],"meshes":[{"name":"SM_Plant_Bush_Leaves_01","primitives":[{"attributes":{"COLOR_0":4,"NORMAL":3,"POSITION":2,"TEXCOORD_0":5},"indices":1,"material":0,"mode":4}]}],"nodes":[{"mesh":0,"name":"SM_Plant_Bush_Leaves_01","rotation":[0,0,0,1],"scale":[1,1,1],"translation":[0,0,0]}],"samplers":[{}],"scene":0,"scenes":[{"name":"Root Scene","nodes":[0]}],"textures":[{"name":"file1009","sampler":0,"source":0}]}