{"accessors":[{"bufferView":0,"byteOffset":0,"componentType":5126,"count":1,"max":[0],"min":[0],"type":"SCALAR"},{"bufferView":1,"byteOffset":0,"componentType":5123,"count":828,"type":"SCALAR"},{"bufferView":2,"byteOffset":0,"componentType":5126,"count":722,"max":[0.24117049574852,0.331427097320557,0.20482274889946],"min":[-0.24337260425091,-0.12223818153143,-0.26897352933884],"type":"VEC3"},{"bufferView":3,"byteOffset":0,"componentType":5126,"count":722,"type":"VEC3"},{"bufferView":4,"byteOffset":0,"componentType":5126,"count":722,"type":"VEC2"}],"animations":[{"channels":[],"name":"Take 001","samplers":[]}],"asset":{"generator":"FBX2glTF v0.13.1","version":"2.0"},"bufferViews":[{"buffer":0,"byteLength":4,"byteOffset":0},{"buffer":0,"byteLength":1656,"byteOffset":4,"target":34963},{"buffer":0,"byteLength":8664,"byteOffset":1660,"target":34962},{"buffer":0,"byteLength":8664,"byteOffset":10324,"target":34962},{"buffer":0,"byteLength":5776,"byteOffset":18988,"target":34962}],"buffers":[{"byteLength":24764,"uri":"SM_Plant_Mushrooms_04.bin"}],"images":[{"name":"PolygonNature","uri":"PolygonNature.png"}],"materials":[{"alphaMode":"OPAQUE","doubleSided":false,"extras":{"fromFBX":{"isTruePBR":false,"shadingModel":"Lambert"}},"name":"lambert1","pbrMetallicRoughness":{"baseColorFactor":[0.800000011920929,0.800000011920929,0.800000011920929,1],"baseColorTexture":{"index":0,"texCoord":0},"metallicFactor":0.200000002980232,"roughnessFactor":0.800000011920929}}],"meshes":[{"name":"SM_Plant_Mushrooms_04","primitives":[{"attributes":{"NORMAL":3,"POSITION":2,"TEXCOORD_0":4},"indices":1,"material":0,"mode":4}]}],"nodes":[{"mesh":0,"name":"SM_Plant_Mushrooms_04","rotation":[0,0,0,1],"scale":[1,1,1],"translation":[0,0,0]}],"samplers":[{}],"scene":0,"scenes":[{"name":"Root Scene","nodes":[0]}],"textures":[{"name":"file8","sampler":0,"source":0}]}