{"accessors":[{"bufferView":0,"byteOffset":0,"componentType":5126,"count":1,"max":[0],"min":[0],"type":"SCALAR"},{"bufferView":1,"byteOffset":0,"componentType":5123,"count":720,"type":"SCALAR"},{"bufferView":2,"byteOffset":0,"componentType":5126,"count":710,"max":[0.341537475585938,0.319692611694336,0.295429229736328],"min":[-0.36584854125977,-0.06739473342896,-0.39407348632812],"type":"VEC3"},{"bufferView":3,"byteOffset":0,"componentType":5126,"count":710,"type":"VEC3"},{"bufferView":4,"byteOffset":0,"componentType":5126,"count":710,"type":"VEC4"},{"bufferView":5,"byteOffset":0,"componentType":5126,"count":710,"type":"VEC2"}],"animations":[{"channels":[],"name":"Take 001","samplers":[]}],"asset":{"generator":"FBX2glTF v0.13.1","version":"2.0"},"bufferViews":[{"buffer":0,"byteLength":4,"byteOffset":0},{"buffer":0,"byteLength":1440,"byteOffset":4,"target":34963},{"buffer":0,"byteLength":8520,"byteOffset":1444,"target":34962},{"buffer":0,"byteLength":8520,"byteOffset":9964,"target":34962},{"buffer":0,"byteLength":11360,"byteOffset":18484,"target":34962},{"buffer":0,"byteLength":5680,"byteOffset":29844,"target":34962}],"buffers":[{"byteLength":35524,"uri":"SM_Plant_04.bin"}],"images":[{"name":"PolygonNature","uri":"PolygonNature.png"}],"materials":[{"alphaMode":"OPAQUE","doubleSided":false,"extras":{"fromFBX":{"isTruePBR":false,"shadingModel":"Lambert"}},"name":"lambert2","pbrMetallicRoughness":{"baseColorFactor":[0.800000011920929,0.800000011920929,0.800000011920929,1],"baseColorTexture":{"index":0,"texCoord":0},"metallicFactor":0.200000002980232,"roughnessFactor":0.800000011920929}}],"meshes":[{"name":"SM_Plant_04","primitives":[{"attributes":{"COLOR_0":4,"NORMAL":3,"POSITION":2,"TEXCOORD_0":5},"indices":1,"material":0,"mode":4}]}],"nodes":[{"mesh":0,"name":"SM_Plant_04","rotation":[0,0,0,1],"scale":[1,1,1],"translation":[0,0,0]}],"samplers":[{}],"scene":0,"scenes":[{"name":"Root Scene","nodes":[0]}],"textures":[{"name":"file1","sampler":0,"source":0}]}