{"accessors":[{"bufferView":0,"byteOffset":0,"componentType":5126,"count":1,"max":[0],"min":[0],"type":"SCALAR"},{"bufferView":1,"byteOffset":0,"componentType":5123,"count":420,"type":"SCALAR"},{"bufferView":2,"byteOffset":0,"componentType":5126,"count":414,"max":[0.198714599013329,3.61626648902893,0.199818029999733],"min":[-0.40075635910034,2.81108784675598,-0.19997215270996],"type":"VEC3"},{"bufferView":3,"byteOffset":0,"componentType":5126,"count":414,"type":"VEC3"},{"bufferView":4,"byteOffset":0,"componentType":5126,"count":414,"type":"VEC2"}],"animations":[{"channels":[],"name":"Take 001","samplers":[]}],"asset":{"generator":"FBX2glTF v0.13.1","version":"2.0"},"bufferViews":[{"buffer":0,"byteLength":4,"byteOffset":0},{"buffer":0,"byteLength":840,"byteOffset":4,"target":34963},{"buffer":0,"byteLength":4968,"byteOffset":844,"target":34962},{"buffer":0,"byteLength":4968,"byteOffset":5812,"target":34962},{"buffer":0,"byteLength":3312,"byteOffset":10780,"target":34962}],"buffers":[{"byteLength":14092,"uri":"SM_Prop_Pillar_Arch_Broken_01.bin"}],"images":[{"name":"PolygonNature","uri":"PolygonNature.png"}],"materials":[{"alphaMode":"OPAQUE","doubleSided":false,"extras":{"fromFBX":{"isTruePBR":false,"shadingModel":"Lambert"}},"name":"lambert1","pbrMetallicRoughness":{"baseColorFactor":[0.800000011920929,0.800000011920929,0.800000011920929,1],"baseColorTexture":{"index":0,"texCoord":0},"metallicFactor":0.200000002980232,"roughnessFactor":0.800000011920929}}],"meshes":[{"name":"SM_Prop_Pillar_Arch_Broken_01","primitives":[{"attributes":{"NORMAL":3,"POSITION":2,"TEXCOORD_0":4},"indices":1,"material":0,"mode":4}]}],"nodes":[{"mesh":0,"name":"SM_Prop_Pillar_Arch_Broken_01","rotation":[0,0,0,1],"scale":[1,1,1],"translation":[0,0,0]}],"samplers":[{}],"scene":0,"scenes":[{"name":"Root Scene","nodes":[0]}],"textures":[{"name":"file786","sampler":0,"source":0}]}