{"accessors":[{"bufferView":0,"byteOffset":0,"componentType":5126,"count":1,"max":[0],"min":[0],"type":"SCALAR"},{"bufferView":1,"byteOffset":0,"componentType":5123,"count":1236,"type":"SCALAR"},{"bufferView":2,"byteOffset":0,"componentType":5126,"count":754,"max":[0.582372784614563,0.468607991933823,0.405073165893555],"min":[-0.58237212896347,0,-0.40507411956787],"type":"VEC3"},{"bufferView":3,"byteOffset":0,"componentType":5126,"count":754,"type":"VEC3"},{"bufferView":4,"byteOffset":0,"componentType":5126,"count":754,"type":"VEC2"},{"bufferView":5,"byteOffset":0,"componentType":5123,"count":1137,"type":"SCALAR"},{"bufferView":6,"byteOffset":0,"componentType":5126,"count":657,"max":[0.549870729446411,0.679265022277832,0.412103652954102],"min":[-0.57343018054962,0.370880007743835,-0.41993188858032],"type":"VEC3"},{"bufferView":7,"byteOffset":0,"componentType":5126,"count":657,"type":"VEC3"},{"bufferView":8,"byteOffset":0,"componentType":5126,"count":657,"type":"VEC2"}],"animations":[{"channels":[],"name":"Take 001","samplers":[]}],"asset":{"generator":"FBX2glTF v0.13.1","version":"2.0"},"bufferViews":[{"buffer":0,"byteLength":4,"byteOffset":0},{"buffer":0,"byteLength":2472,"byteOffset":4,"target":34963},{"buffer":0,"byteLength":9048,"byteOffset":2476,"target":34962},{"buffer":0,"byteLength":9048,"byteOffset":11524,"target":34962},{"buffer":0,"byteLength":6032,"byteOffset":20572,"target":34962},{"buffer":0,"byteLength":2274,"byteOffset":26604,"target":34963},{"buffer":0,"byteLength":7884,"byteOffset":28880,"target":34962},{"buffer":0,"byteLength":7884,"byteOffset":36764,"target":34962},{"buffer":0,"byteLength":5256,"byteOffset":44648,"target":34962}],"buffers":[{"byteLength":49904,"uri":"SM_Prop_Chest_Wood_01.bin"}],"images":[{"name":"PolygonNature","uri":"PolygonNature.png"}],"materials":[{"alphaMode":"OPAQUE","doubleSided":false,"extras":{"fromFBX":{"isTruePBR":false,"shadingModel":"Lambert"}},"name":"lambert2","pbrMetallicRoughness":{"baseColorFactor":[0.800000011920929,0.800000011920929,0.800000011920929,1],"baseColorTexture":{"index":0,"texCoord":0},"metallicFactor":0.200000002980232,"roughnessFactor":0.800000011920929}}],"meshes":[{"name":"SM_Prop_Chest_Wood_01","primitives":[{"attributes":{"NORMAL":3,"POSITION":2,"TEXCOORD_0":4},"indices":1,"material":0,"mode":4}]},{"name":"SM_Prop_Chest_Wood_Lid","primitives":[{"attributes":{"NORMAL":7,"POSITION":6,"TEXCOORD_0":8},"indices":5,"material":0,"mode":4}]}],"nodes":[{"children":[1],"mesh":0,"name":"SM_Prop_Chest_Wood_01","rotation":[0,0,0,1],"scale":[1,1,1],"translation":[0,0,0]},{"mesh":1,"name":"SM_Prop_Chest_Wood_Lid","rotation":[0,0,0,1],"scale":[1,1,1],"translation":[0,0,0]}],"samplers":[{}],"scene":0,"scenes":[{"name":"Root Scene","nodes":[0]}],"textures":[{"name":"file1","sampler":0,"source":0}]}