{"accessors":[{"bufferView":0,"byteOffset":0,"componentType":5126,"count":1,"max":[0],"min":[0],"type":"SCALAR"},{"bufferView":1,"byteOffset":0,"componentType":5123,"count":96,"type":"SCALAR"},{"bufferView":2,"byteOffset":0,"componentType":5126,"count":25,"max":[0.564060986042023,0.671723306179047,0.588557183742523],"min":[-0.58323383331299,0.533059120178223,-0.58563446998596],"type":"VEC3"},{"bufferView":3,"byteOffset":0,"componentType":5126,"count":25,"type":"VEC3"},{"bufferView":4,"byteOffset":0,"componentType":5126,"count":25,"type":"VEC2"}],"animations":[{"channels":[],"name":"Take 001","samplers":[]}],"asset":{"generator":"FBX2glTF v0.13.1","version":"2.0"},"bufferViews":[{"buffer":0,"byteLength":4,"byteOffset":0},{"buffer":0,"byteLength":192,"byteOffset":4,"target":34963},{"buffer":0,"byteLength":300,"byteOffset":196,"target":34962},{"buffer":0,"byteLength":300,"byteOffset":496,"target":34962},{"buffer":0,"byteLength":200,"byteOffset":796,"target":34962}],"buffers":[{"byteLength":996,"uri":"SM_Plant_FlowerPatch_01.bin"}],"images":[{"name":"FlowerPatch_02","uri":"../Textures/Misc/FlowerPatch_02.png"}],"materials":[{"alphaMode":"OPAQUE","doubleSided":false,"extras":{"fromFBX":{"isTruePBR":false,"shadingModel":"Lambert"}},"name":"lambert2","pbrMetallicRoughness":{"baseColorFactor":[0.800000011920929,0.800000011920929,0.800000011920929,0],"baseColorTexture":{"index":0,"texCoord":0},"metallicFactor":0.200000002980232,"roughnessFactor":0.800000011920929}}],"meshes":[{"name":"SM_Plant_FlowerPatch_01","primitives":[{"attributes":{"NORMAL":3,"POSITION":2,"TEXCOORD_0":4},"indices":1,"material":0,"mode":4}]}],"nodes":[{"mesh":0,"name":"SM_Plant_FlowerPatch_01","rotation":[0,0,0,1],"scale":[1,1,1],"translation":[0,0,0]}],"samplers":[{}],"scene":0,"scenes":[{"name":"Root Scene","nodes":[0]}],"textures":[{"name":"file4","sampler":0,"source":0}]}