{"accessors":[{"bufferView":0,"byteOffset":0,"componentType":5126,"count":1,"max":[0],"min":[0],"type":"SCALAR"},{"bufferView":1,"byteOffset":0,"componentType":5123,"count":90,"type":"SCALAR"},{"bufferView":2,"byteOffset":0,"componentType":5126,"count":42,"max":[0.237068176269531,0.584991455078125,0.318626403808594],"min":[-0.29726028442383,-0.01987314224243,-0.29364776611328],"type":"VEC3"},{"bufferView":3,"byteOffset":0,"componentType":5126,"count":42,"type":"VEC3"},{"bufferView":4,"byteOffset":0,"componentType":5126,"count":42,"type":"VEC4"},{"bufferView":5,"byteOffset":0,"componentType":5126,"count":42,"type":"VEC2"}],"animations":[{"channels":[],"name":"Take 001","samplers":[]}],"asset":{"generator":"FBX2glTF v0.13.1","version":"2.0"},"bufferViews":[{"buffer":0,"byteLength":4,"byteOffset":0},{"buffer":0,"byteLength":180,"byteOffset":4,"target":34963},{"buffer":0,"byteLength":504,"byteOffset":184,"target":34962},{"buffer":0,"byteLength":504,"byteOffset":688,"target":34962},{"buffer":0,"byteLength":672,"byteOffset":1192,"target":34962},{"buffer":0,"byteLength":336,"byteOffset":1864,"target":34962}],"buffers":[{"byteLength":2200,"uri":"SM_Plant_Bush_Leaves_02.bin"}],"images":[{"name":"PolygonNature","uri":"PolygonNature.png"}],"materials":[{"alphaMode":"OPAQUE","doubleSided":false,"extras":{"fromFBX":{"isTruePBR":false,"shadingModel":"Lambert"}},"name":"Tree4","pbrMetallicRoughness":{"baseColorFactor":[0.800000011920929,0.800000011920929,0.800000011920929,1],"baseColorTexture":{"index":0,"texCoord":0},"metallicFactor":0.200000002980232,"roughnessFactor":0.800000011920929}}],"meshes":[{"name":"SM_Plant_Bush_Leaves_02","primitives":[{"attributes":{"COLOR_0":4,"NORMAL":3,"POSITION":2,"TEXCOORD_0":5},"indices":1,"material":0,"mode":4}]}],"nodes":[{"mesh":0,"name":"SM_Plant_Bush_Leaves_02","rotation":[0,0,0,1],"scale":[1,1,1],"translation":[0,0,0]}],"samplers":[{}],"scene":0,"scenes":[{"name":"Root Scene","nodes":[0]}],"textures":[{"name":"file1009","sampler":0,"source":0}]}