{"accessors":[{"bufferView":0,"byteOffset":0,"componentType":5126,"count":1,"max":[0],"min":[0],"type":"SCALAR"},{"bufferView":1,"byteOffset":0,"componentType":5123,"count":6669,"type":"SCALAR"},{"bufferView":2,"byteOffset":0,"componentType":5126,"count":6667,"max":[13.2309398651123,1.29002928733826,13.8323020935059],"min":[-13.5762815475464,-2.03921389579773,-13.300365447998],"type":"VEC3"},{"bufferView":3,"byteOffset":0,"componentType":5126,"count":6667,"type":"VEC3"},{"bufferView":4,"byteOffset":0,"componentType":5126,"count":6667,"type":"VEC2"}],"animations":[{"channels":[],"name":"Take 001","samplers":[]}],"asset":{"generator":"FBX2glTF v0.13.1","version":"2.0"},"bufferViews":[{"buffer":0,"byteLength":4,"byteOffset":0},{"buffer":0,"byteLength":13338,"byteOffset":4,"target":34963},{"buffer":0,"byteLength":80004,"byteOffset":13344,"target":34962},{"buffer":0,"byteLength":80004,"byteOffset":93348,"target":34962},{"buffer":0,"byteLength":53336,"byteOffset":173352,"target":34962}],"buffers":[{"byteLength":226688,"uri":"SM_Rock_Tile_02.bin"}],"images":[{"name":"PolygonNature","uri":"PolygonNature.png"}],"materials":[{"alphaMode":"OPAQUE","doubleSided":false,"extras":{"fromFBX":{"isTruePBR":false,"shadingModel":"Lambert"}},"name":"lambert1","pbrMetallicRoughness":{"baseColorFactor":[0.800000011920929,0.800000011920929,0.800000011920929,1],"baseColorTexture":{"index":0,"texCoord":0},"metallicFactor":0.200000002980232,"roughnessFactor":0.800000011920929}}],"meshes":[{"name":"SM_Rock_Tile_02","primitives":[{"attributes":{"NORMAL":3,"POSITION":2,"TEXCOORD_0":4},"indices":1,"material":0,"mode":4}]}],"nodes":[{"mesh":0,"name":"SM_Rock_Tile_02","rotation":[0,0,0,1],"scale":[1,1,1],"translation":[0,0,0]}],"samplers":[{}],"scene":0,"scenes":[{"name":"Root Scene","nodes":[0]}],"textures":[{"name":"file786","sampler":0,"source":0}]}