{"accessors":[{"bufferView":0,"byteOffset":0,"componentType":5126,"count":1,"max":[0],"min":[0],"type":"SCALAR"},{"bufferView":1,"byteOffset":0,"componentType":5123,"count":1440,"type":"SCALAR"},{"bufferView":2,"byteOffset":0,"componentType":5126,"count":1440,"max":[2.03612470626831,2.2256133556366,2.73013830184937],"min":[-2.01982545852661,-0.28996509313583,-3.51360416412354],"type":"VEC3"},{"bufferView":3,"byteOffset":0,"componentType":5126,"count":1440,"type":"VEC3"},{"bufferView":4,"byteOffset":0,"componentType":5126,"count":1440,"type":"VEC2"}],"animations":[{"channels":[],"name":"Take 001","samplers":[]}],"asset":{"generator":"FBX2glTF v0.13.1","version":"2.0"},"bufferViews":[{"buffer":0,"byteLength":4,"byteOffset":0},{"buffer":0,"byteLength":2880,"byteOffset":4,"target":34963},{"buffer":0,"byteLength":17280,"byteOffset":2884,"target":34962},{"buffer":0,"byteLength":17280,"byteOffset":20164,"target":34962},{"buffer":0,"byteLength":11520,"byteOffset":37444,"target":34962}],"buffers":[{"byteLength":48964,"uri":"SM_Rock_Pile_04.bin"}],"images":[{"name":"PolygonNature","uri":"PolygonNature.png"}],"materials":[{"alphaMode":"OPAQUE","doubleSided":false,"extras":{"fromFBX":{"isTruePBR":false,"shadingModel":"Lambert"}},"name":"lambert1","pbrMetallicRoughness":{"baseColorFactor":[0.800000011920929,0.800000011920929,0.800000011920929,1],"baseColorTexture":{"index":0,"texCoord":0},"metallicFactor":0.200000002980232,"roughnessFactor":0.800000011920929}}],"meshes":[{"name":"SM_Rock_Pile_04","primitives":[{"attributes":{"NORMAL":3,"POSITION":2,"TEXCOORD_0":4},"indices":1,"material":0,"mode":4}]}],"nodes":[{"mesh":0,"name":"SM_Rock_Pile_04","rotation":[0,0,0,1],"scale":[1,1,1],"translation":[0,0,0]}],"samplers":[{}],"scene":0,"scenes":[{"name":"Root Scene","nodes":[0]}],"textures":[{"name":"file786","sampler":0,"source":0}]}