{"accessors":[{"bufferView":0,"byteOffset":0,"componentType":5126,"count":1,"max":[0],"min":[0],"type":"SCALAR"},{"bufferView":1,"byteOffset":0,"componentType":5123,"count":5658,"type":"SCALAR"},{"bufferView":2,"byteOffset":0,"componentType":5126,"count":5652,"max":[5.81378889083862,8.1758918762207,3.38727045059204],"min":[-5.81241464614868,-1.11128234863281,-3.40611815452576],"type":"VEC3"},{"bufferView":3,"byteOffset":0,"componentType":5126,"count":5652,"type":"VEC3"},{"bufferView":4,"byteOffset":0,"componentType":5126,"count":5652,"type":"VEC2"}],"animations":[{"channels":[],"name":"Take 001","samplers":[]}],"asset":{"generator":"FBX2glTF v0.13.1","version":"2.0"},"bufferViews":[{"buffer":0,"byteLength":4,"byteOffset":0},{"buffer":0,"byteLength":11316,"byteOffset":4,"target":34963},{"buffer":0,"byteLength":67824,"byteOffset":11320,"target":34962},{"buffer":0,"byteLength":67824,"byteOffset":79144,"target":34962},{"buffer":0,"byteLength":45216,"byteOffset":146968,"target":34962}],"buffers":[{"byteLength":192184,"uri":"SM_Rock_CaveEntrance_01.bin"}],"images":[{"name":"PolygonNature","uri":"PolygonNature.png"}],"materials":[{"alphaMode":"OPAQUE","doubleSided":false,"extras":{"fromFBX":{"isTruePBR":false,"shadingModel":"Lambert"}},"name":"lambert1","pbrMetallicRoughness":{"baseColorFactor":[0.800000011920929,0.800000011920929,0.800000011920929,1],"baseColorTexture":{"index":0,"texCoord":0},"metallicFactor":0.200000002980232,"roughnessFactor":0.800000011920929}}],"meshes":[{"name":"SM_Rock_CaveEntrance_01","primitives":[{"attributes":{"NORMAL":3,"POSITION":2,"TEXCOORD_0":4},"indices":1,"material":0,"mode":4}]}],"nodes":[{"mesh":0,"name":"SM_Rock_CaveEntrance_01","rotation":[0,0,0,1],"scale":[1,1,1],"translation":[0,0,0]}],"samplers":[{}],"scene":0,"scenes":[{"name":"Root Scene","nodes":[0]}],"textures":[{"name":"file786","sampler":0,"source":0}]}