{"accessors":[{"bufferView":0,"byteOffset":0,"componentType":5126,"count":1,"max":[0],"min":[0],"type":"SCALAR"},{"bufferView":1,"byteOffset":0,"componentType":5123,"count":3165,"type":"SCALAR"},{"bufferView":2,"byteOffset":0,"componentType":5126,"count":3007,"max":[7.15984535217285,4.73007297515869,4.77959203720093],"min":[-6.45414352416992,-2.50686049461365,-6.99086904525757],"type":"VEC3"},{"bufferView":3,"byteOffset":0,"componentType":5126,"count":3007,"type":"VEC3"},{"bufferView":4,"byteOffset":0,"componentType":5126,"count":3007,"type":"VEC2"}],"animations":[{"channels":[],"name":"Take 001","samplers":[]}],"asset":{"generator":"FBX2glTF v0.13.1","version":"2.0"},"bufferViews":[{"buffer":0,"byteLength":4,"byteOffset":0},{"buffer":0,"byteLength":6330,"byteOffset":4,"target":34963},{"buffer":0,"byteLength":36084,"byteOffset":6336,"target":34962},{"buffer":0,"byteLength":36084,"byteOffset":42420,"target":34962},{"buffer":0,"byteLength":24056,"byteOffset":78504,"target":34962}],"buffers":[{"byteLength":102560,"uri":"SM_Rock_CaveInterior_02.bin"}],"images":[{"name":"PolygonNature","uri":"PolygonNature.png"}],"materials":[{"alphaMode":"OPAQUE","doubleSided":false,"extras":{"fromFBX":{"isTruePBR":false,"shadingModel":"Lambert"}},"name":"lambert1","pbrMetallicRoughness":{"baseColorFactor":[0.800000011920929,0.800000011920929,0.800000011920929,1],"baseColorTexture":{"index":0,"texCoord":0},"metallicFactor":0.200000002980232,"roughnessFactor":0.800000011920929}}],"meshes":[{"name":"SM_Rock_CaveInterior_02","primitives":[{"attributes":{"NORMAL":3,"POSITION":2,"TEXCOORD_0":4},"indices":1,"material":0,"mode":4}]}],"nodes":[{"mesh":0,"name":"SM_Rock_CaveInterior_02","rotation":[0,0,0,1],"scale":[1,1,1],"translation":[0,0,0]}],"samplers":[{}],"scene":0,"scenes":[{"name":"Root Scene","nodes":[0]}],"textures":[{"name":"file786","sampler":0,"source":0}]}