{"accessors":[{"bufferView":0,"byteOffset":0,"componentType":5126,"count":1,"max":[0],"min":[0],"type":"SCALAR"},{"bufferView":1,"byteOffset":0,"componentType":5123,"count":360,"type":"SCALAR"},{"bufferView":2,"byteOffset":0,"componentType":5126,"count":240,"max":[-0.07984321564436,0.243624776601791,0.114466741681099],"min":[-0.29008188843727,-0.24362477660179,-0.80645823478699],"type":"VEC3"},{"bufferView":3,"byteOffset":0,"componentType":5126,"count":240,"type":"VEC3"},{"bufferView":4,"byteOffset":0,"componentType":5126,"count":240,"type":"VEC2"}],"animations":[{"channels":[],"name":"Take 001","samplers":[]}],"asset":{"generator":"FBX2glTF v0.13.1","version":"2.0"},"bufferViews":[{"buffer":0,"byteLength":4,"byteOffset":0},{"buffer":0,"byteLength":720,"byteOffset":4,"target":34963},{"buffer":0,"byteLength":2880,"byteOffset":724,"target":34962},{"buffer":0,"byteLength":2880,"byteOffset":3604,"target":34962},{"buffer":0,"byteLength":1920,"byteOffset":6484,"target":34962}],"buffers":[{"byteLength":8404,"uri":"SM_Swamp_Root_02.bin"}],"images":[{"name":"PolygonNature","uri":"PolygonNature.png"}],"materials":[{"alphaMode":"OPAQUE","doubleSided":false,"extras":{"fromFBX":{"isTruePBR":false,"shadingModel":"Lambert"}},"name":"lambert2","pbrMetallicRoughness":{"baseColorFactor":[0.800000011920929,0.800000011920929,0.800000011920929,1],"baseColorTexture":{"index":0,"texCoord":0},"metallicFactor":0.200000002980232,"roughnessFactor":0.800000011920929}}],"meshes":[{"name":"SM_Swamp_Root_02","primitives":[{"attributes":{"NORMAL":3,"POSITION":2,"TEXCOORD_0":4},"indices":1,"material":0,"mode":4}]}],"nodes":[{"mesh":0,"name":"SM_Swamp_Root_02","rotation":[0,0,0,1],"scale":[1,1,1],"translation":[0,0,0]}],"samplers":[{}],"scene":0,"scenes":[{"name":"Root Scene","nodes":[0]}],"textures":[{"name":"file1","sampler":0,"source":0}]}