{"accessors":[{"bufferView":0,"byteOffset":0,"componentType":5126,"count":1,"max":[0],"min":[0],"type":"SCALAR"},{"bufferView":1,"byteOffset":0,"componentType":5123,"count":228,"type":"SCALAR"},{"bufferView":2,"byteOffset":0,"componentType":5126,"count":146,"max":[0.10812034457922,0.0371575243771076,0.268570393323898],"min":[-0.05462561175227,-0.04235578328371,-0.61498475074768],"type":"VEC3"},{"bufferView":3,"byteOffset":0,"componentType":5126,"count":146,"type":"VEC3"},{"bufferView":4,"byteOffset":0,"componentType":5126,"count":146,"type":"VEC2"}],"animations":[{"channels":[],"name":"Take 001","samplers":[]}],"asset":{"generator":"FBX2glTF v0.13.1","version":"2.0"},"bufferViews":[{"buffer":0,"byteLength":4,"byteOffset":0},{"buffer":0,"byteLength":456,"byteOffset":4,"target":34963},{"buffer":0,"byteLength":1752,"byteOffset":460,"target":34962},{"buffer":0,"byteLength":1752,"byteOffset":2212,"target":34962},{"buffer":0,"byteLength":1168,"byteOffset":3964,"target":34962}],"buffers":[{"byteLength":5132,"uri":"SM_Tree_Twig_05.bin"}],"images":[{"name":"PolygonNature","uri":"PolygonNature.png"}],"materials":[{"alphaMode":"OPAQUE","doubleSided":false,"extras":{"fromFBX":{"isTruePBR":false,"shadingModel":"Lambert"}},"name":"lambert2","pbrMetallicRoughness":{"baseColorFactor":[0.800000011920929,0.800000011920929,0.800000011920929,1],"baseColorTexture":{"index":0,"texCoord":0},"metallicFactor":0.200000002980232,"roughnessFactor":0.800000011920929}}],"meshes":[{"name":"SM_Tree_Twig_05","primitives":[{"attributes":{"NORMAL":3,"POSITION":2,"TEXCOORD_0":4},"indices":1,"material":0,"mode":4}]}],"nodes":[{"mesh":0,"name":"SM_Tree_Twig_05","rotation":[0,0,0,1],"scale":[1,1,1],"translation":[0,0,0]}],"samplers":[{}],"scene":0,"scenes":[{"name":"Root Scene","nodes":[0]}],"textures":[{"name":"file1","sampler":0,"source":0}]}