{"accessors":[{"bufferView":0,"byteOffset":0,"componentType":5126,"count":1,"max":[0],"min":[0],"type":"SCALAR"},{"bufferView":1,"byteOffset":0,"componentType":5123,"count":1050,"type":"SCALAR"},{"bufferView":2,"byteOffset":0,"componentType":5126,"count":740,"max":[0.386523872613907,0.381446450948715,-0.02181167528033],"min":[-0.13541510701179,-0.37790265679359,-1.8170725107193],"type":"VEC3"},{"bufferView":3,"byteOffset":0,"componentType":5126,"count":740,"type":"VEC3"},{"bufferView":4,"byteOffset":0,"componentType":5126,"count":740,"type":"VEC2"}],"animations":[{"channels":[],"name":"Take 001","samplers":[]}],"asset":{"generator":"FBX2glTF v0.13.1","version":"2.0"},"bufferViews":[{"buffer":0,"byteLength":4,"byteOffset":0},{"buffer":0,"byteLength":2100,"byteOffset":4,"target":34963},{"buffer":0,"byteLength":8880,"byteOffset":2104,"target":34962},{"buffer":0,"byteLength":8880,"byteOffset":10984,"target":34962},{"buffer":0,"byteLength":5920,"byteOffset":19864,"target":34962}],"buffers":[{"byteLength":25784,"uri":"SM_Tree_Swamp_Branch_01.bin"}],"images":[{"name":"PolygonNature","uri":"PolygonNature.png"}],"materials":[{"alphaMode":"OPAQUE","doubleSided":false,"extras":{"fromFBX":{"isTruePBR":false,"shadingModel":"Lambert"}},"name":"lambert2","pbrMetallicRoughness":{"baseColorFactor":[0.800000011920929,0.800000011920929,0.800000011920929,1],"baseColorTexture":{"index":0,"texCoord":0},"metallicFactor":0.200000002980232,"roughnessFactor":0.800000011920929}}],"meshes":[{"name":"SM_Tree_Swamp_Branch_01","primitives":[{"attributes":{"NORMAL":3,"POSITION":2,"TEXCOORD_0":4},"indices":1,"material":0,"mode":4}]}],"nodes":[{"mesh":0,"name":"SM_Tree_Swamp_Branch_01","rotation":[0,0,0,1],"scale":[1,1,1],"translation":[0,0,0]}],"samplers":[{}],"scene":0,"scenes":[{"name":"Root Scene","nodes":[0]}],"textures":[{"name":"file1","sampler":0,"source":0}]}