{"accessors":[{"bufferView":0,"byteOffset":0,"componentType":5126,"count":1,"max":[0],"min":[0],"type":"SCALAR"},{"bufferView":1,"byteOffset":0,"componentType":5123,"count":3168,"type":"SCALAR"},{"bufferView":2,"byteOffset":0,"componentType":5126,"count":1890,"max":[0.851287841796875,4.29720973968506,0.684341430664062],"min":[-0.727294921875,0,-0.81537818908691],"type":"VEC3"},{"bufferView":3,"byteOffset":0,"componentType":5126,"count":1890,"type":"VEC3"},{"bufferView":4,"byteOffset":0,"componentType":5126,"count":1890,"type":"VEC4"},{"bufferView":5,"byteOffset":0,"componentType":5126,"count":1890,"type":"VEC2"},{"bufferView":6,"byteOffset":0,"componentType":5123,"count":1764,"type":"SCALAR"},{"bufferView":7,"byteOffset":0,"componentType":5126,"count":672,"max":[1.12937164306641,4.4884204864502,0.990299224853516],"min":[-1.02886199951172,0.848043322563171,-1.11302757263184],"type":"VEC3"},{"bufferView":8,"byteOffset":0,"componentType":5126,"count":672,"type":"VEC3"},{"bufferView":9,"byteOffset":0,"componentType":5126,"count":672,"type":"VEC4"},{"bufferView":10,"byteOffset":0,"componentType":5126,"count":672,"type":"VEC2"}],"animations":[{"channels":[],"name":"Take 001","samplers":[]}],"asset":{"generator":"FBX2glTF v0.13.1","version":"2.0"},"bufferViews":[{"buffer":0,"byteLength":4,"byteOffset":0},{"buffer":0,"byteLength":6336,"byteOffset":4,"target":34963},{"buffer":0,"byteLength":22680,"byteOffset":6340,"target":34962},{"buffer":0,"byteLength":22680,"byteOffset":29020,"target":34962},{"buffer":0,"byteLength":30240,"byteOffset":51700,"target":34962},{"buffer":0,"byteLength":15120,"byteOffset":81940,"target":34962},{"buffer":0,"byteLength":3528,"byteOffset":97060,"target":34963},{"buffer":0,"byteLength":8064,"byteOffset":100588,"target":34962},{"buffer":0,"byteLength":8064,"byteOffset":108652,"target":34962},{"buffer":0,"byteLength":10752,"byteOffset":116716,"target":34962},{"buffer":0,"byteLength":5376,"byteOffset":127468,"target":34962}],"buffers":[{"byteLength":132844,"uri":"SM_Tree_Birch_Dead_01.bin"}],"materials":[{"alphaMode":"OPAQUE","doubleSided":false,"extras":{"fromFBX":{"isTruePBR":false,"shadingModel":"Lambert"}},"name":"Trunk","pbrMetallicRoughness":{"baseColorFactor":[0.800000011920929,0,0,1],"metallicFactor":0.200000002980232,"roughnessFactor":0.800000011920929}},{"alphaMode":"OPAQUE","doubleSided":false,"extras":{"fromFBX":{"isTruePBR":false,"shadingModel":"Lambert"}},"name":"Leaves_Dead","pbrMetallicRoughness":{"baseColorFactor":[0,0.181814387440681,0.800000011920929,1],"metallicFactor":0.200000002980232,"roughnessFactor":0.800000011920929}}],"meshes":[{"name":"SM_Tree_Birch_Dead_01","primitives":[{"attributes":{"COLOR_0":4,"NORMAL":3,"POSITION":2,"TEXCOORD_0":5},"indices":1,"material":0,"mode":4},{"attributes":{"COLOR_0":9,"NORMAL":8,"POSITION":7,"TEXCOORD_0":10},"indices":6,"material":1,"mode":4}]}],"nodes":[{"mesh":0,"name":"SM_Tree_Birch_Dead_01","rotation":[0,0,0,1],"scale":[1,1,1],"translation":[0,0,0]}],"samplers":[{}],"scene":0,"scenes":[{"name":"Root Scene","nodes":[0]}]}