{"accessors":[{"bufferView":0,"byteOffset":0,"componentType":5126,"count":1,"max":[0],"min":[0],"type":"SCALAR"},{"bufferView":1,"byteOffset":0,"componentType":5123,"count":252,"type":"SCALAR"},{"bufferView":2,"byteOffset":0,"componentType":5126,"count":173,"max":[0.188755989074707,5.60977935791016,0.188756346702576],"min":[-0.18875598907471,0,-0.18875634670258],"type":"VEC3"},{"bufferView":3,"byteOffset":0,"componentType":5126,"count":173,"type":"VEC3"},{"bufferView":4,"byteOffset":0,"componentType":5126,"count":173,"type":"VEC4"},{"bufferView":5,"byteOffset":0,"componentType":5126,"count":173,"type":"VEC2"},{"bufferView":6,"byteOffset":0,"componentType":5123,"count":1692,"type":"SCALAR"},{"bufferView":7,"byteOffset":0,"componentType":5126,"count":530,"max":[1.55521774291992,5.68320178985596,1.57758760452271],"min":[-1.58053588867188,0.707110345363617,-1.58835327625275],"type":"VEC3"},{"bufferView":8,"byteOffset":0,"componentType":5126,"count":530,"type":"VEC3"},{"bufferView":9,"byteOffset":0,"componentType":5126,"count":530,"type":"VEC4"},{"bufferView":10,"byteOffset":0,"componentType":5126,"count":530,"type":"VEC2"}],"animations":[{"channels":[],"name":"Take 001","samplers":[]}],"asset":{"generator":"FBX2glTF v0.13.1","version":"2.0"},"bufferViews":[{"buffer":0,"byteLength":4,"byteOffset":0},{"buffer":0,"byteLength":504,"byteOffset":4,"target":34963},{"buffer":0,"byteLength":2076,"byteOffset":508,"target":34962},{"buffer":0,"byteLength":2076,"byteOffset":2584,"target":34962},{"buffer":0,"byteLength":2768,"byteOffset":4660,"target":34962},{"buffer":0,"byteLength":1384,"byteOffset":7428,"target":34962},{"buffer":0,"byteLength":3384,"byteOffset":8812,"target":34963},{"buffer":0,"byteLength":6360,"byteOffset":12196,"target":34962},{"buffer":0,"byteLength":6360,"byteOffset":18556,"target":34962},{"buffer":0,"byteLength":8480,"byteOffset":24916,"target":34962},{"buffer":0,"byteLength":4240,"byteOffset":33396,"target":34962}],"buffers":[{"byteLength":37636,"uri":"SM_Tree_Pine_01.bin"}],"materials":[{"alphaMode":"OPAQUE","doubleSided":false,"extras":{"fromFBX":{"isTruePBR":false,"shadingModel":"Lambert"}},"name":"Trunk","pbrMetallicRoughness":{"baseColorFactor":[0.800000011920929,0,0,1],"metallicFactor":0.200000002980232,"roughnessFactor":0.800000011920929}},{"alphaMode":"OPAQUE","doubleSided":false,"extras":{"fromFBX":{"isTruePBR":false,"shadingModel":"Lambert"}},"name":"Leave","pbrMetallicRoughness":{"baseColorFactor":[0.163994312286377,0.800000011920929,0,1],"metallicFactor":0.200000002980232,"roughnessFactor":0.800000011920929}}],"meshes":[{"name":"SM_Tree_Pine_01","primitives":[{"attributes":{"COLOR_0":4,"NORMAL":3,"POSITION":2,"TEXCOORD_0":5},"indices":1,"material":0,"mode":4},{"attributes":{"COLOR_0":9,"NORMAL":8,"POSITION":7,"TEXCOORD_0":10},"indices":6,"material":1,"mode":4}]}],"nodes":[{"mesh":0,"name":"SM_Tree_Pine_01","rotation":[0,0,0,1],"scale":[1,1,1],"translation":[0,0,0]}],"samplers":[{}],"scene":0,"scenes":[{"name":"Root Scene","nodes":[0]}]}