{"accessors":[{"bufferView":0,"byteOffset":0,"componentType":5126,"count":1,"max":[0],"min":[0],"type":"SCALAR"},{"bufferView":1,"byteOffset":0,"componentType":5123,"count":666,"type":"SCALAR"},{"bufferView":2,"byteOffset":0,"componentType":5126,"count":666,"max":[4.46448802947998,0.181008145213127,3.60439991950989],"min":[-4.71148204803467,-1.74440562725067,-3.13560175895691],"type":"VEC3"},{"bufferView":3,"byteOffset":0,"componentType":5126,"count":666,"type":"VEC3"},{"bufferView":4,"byteOffset":0,"componentType":5126,"count":666,"type":"VEC2"}],"animations":[{"channels":[],"name":"Take 001","samplers":[]}],"asset":{"generator":"FBX2glTF v0.13.1","version":"2.0"},"bufferViews":[{"buffer":0,"byteLength":4,"byteOffset":0},{"buffer":0,"byteLength":1332,"byteOffset":4,"target":34963},{"buffer":0,"byteLength":7992,"byteOffset":1336,"target":34962},{"buffer":0,"byteLength":7992,"byteOffset":9328,"target":34962},{"buffer":0,"byteLength":5328,"byteOffset":17320,"target":34962}],"buffers":[{"byteLength":22648,"uri":"SM_Terrain_RiverSide_Corner_02.bin"}],"images":[{"name":"PolygonNature","uri":"PolygonNature.png"}],"materials":[{"alphaMode":"OPAQUE","doubleSided":false,"extras":{"fromFBX":{"isTruePBR":false,"shadingModel":"Lambert"}},"name":"lambert1","pbrMetallicRoughness":{"baseColorFactor":[0.800000011920929,0.800000011920929,0.800000011920929,1],"baseColorTexture":{"index":0,"texCoord":0},"metallicFactor":0.200000002980232,"roughnessFactor":0.800000011920929}}],"meshes":[{"name":"SM_Terrain_RiverSide_Corner_02","primitives":[{"attributes":{"NORMAL":3,"POSITION":2,"TEXCOORD_0":4},"indices":1,"material":0,"mode":4}]}],"nodes":[{"mesh":0,"name":"SM_Terrain_RiverSide_Corner_02","rotation":[0,0,0,1],"scale":[1,1,1],"translation":[0,0,0]}],"samplers":[{}],"scene":0,"scenes":[{"name":"Root Scene","nodes":[0]}],"textures":[{"name":"file786","sampler":0,"source":0}]}