{"accessors":[{"bufferView":0,"byteOffset":0,"componentType":5126,"count":1,"max":[0],"min":[0],"type":"SCALAR"},{"bufferView":1,"byteOffset":0,"componentType":5123,"count":168,"type":"SCALAR"},{"bufferView":2,"byteOffset":0,"componentType":5126,"count":166,"max":[1.08954346179962,0.127481192350388,1.08735370635986],"min":[-1.08954346179962,0,-1.08735370635986],"type":"VEC3"},{"bufferView":3,"byteOffset":0,"componentType":5126,"count":166,"type":"VEC3"},{"bufferView":4,"byteOffset":0,"componentType":5126,"count":166,"type":"VEC2"}],"animations":[{"channels":[],"name":"Take 001","samplers":[]}],"asset":{"generator":"FBX2glTF v0.13.1","version":"2.0"},"bufferViews":[{"buffer":0,"byteLength":4,"byteOffset":0},{"buffer":0,"byteLength":336,"byteOffset":4,"target":34963},{"buffer":0,"byteLength":1992,"byteOffset":340,"target":34962},{"buffer":0,"byteLength":1992,"byteOffset":2332,"target":34962},{"buffer":0,"byteLength":1328,"byteOffset":4324,"target":34962}],"buffers":[{"byteLength":5652,"uri":"SM_Terrain_Swamp_Growth_03.bin"}],"images":[{"name":"PolygonNature_01","uri":"../Textures/PolygonNature_01.png"}],"materials":[{"alphaMode":"OPAQUE","doubleSided":false,"extras":{"fromFBX":{"isTruePBR":false,"shadingModel":"Lambert"}},"name":"lambert2","pbrMetallicRoughness":{"baseColorFactor":[0.800000011920929,0.800000011920929,0.800000011920929,1],"baseColorTexture":{"index":0,"texCoord":0},"metallicFactor":0.200000002980232,"roughnessFactor":0.800000011920929}}],"meshes":[{"name":"SM_Terrain_Swamp_Growth_03","primitives":[{"attributes":{"NORMAL":3,"POSITION":2,"TEXCOORD_0":4},"indices":1,"material":0,"mode":4}]}],"nodes":[{"mesh":0,"name":"SM_Terrain_Swamp_Growth_03","rotation":[0,0,0,1],"scale":[1,1,1],"translation":[0,0,0]}],"samplers":[{}],"scene":0,"scenes":[{"name":"Root Scene","nodes":[0]}],"textures":[{"name":"PolygonNature_01_1","sampler":0,"source":0}]}