{"accessors":[{"bufferView":0,"byteOffset":0,"componentType":5126,"count":1,"max":[0],"min":[0],"type":"SCALAR"},{"bufferView":1,"byteOffset":0,"componentType":5123,"count":270,"type":"SCALAR"},{"bufferView":2,"byteOffset":0,"componentType":5126,"count":171,"max":[0.189674377441406,0.985125660896301,0.288076400756836],"min":[-0.11975861340761,0,-0.06429004669189],"type":"VEC3"},{"bufferView":3,"byteOffset":0,"componentType":5126,"count":171,"type":"VEC3"},{"bufferView":4,"byteOffset":0,"componentType":5126,"count":171,"type":"VEC4"},{"bufferView":5,"byteOffset":0,"componentType":5126,"count":171,"type":"VEC2"},{"bufferView":6,"byteOffset":0,"componentType":5123,"count":126,"type":"SCALAR"},{"bufferView":7,"byteOffset":0,"componentType":5126,"count":48,"max":[0.530754089355469,1.23145747184753,0.406540870666504],"min":[-0.45964050292969,0.205032974481583,-0.31655406951904],"type":"VEC3"},{"bufferView":8,"byteOffset":0,"componentType":5126,"count":48,"type":"VEC3"},{"bufferView":9,"byteOffset":0,"componentType":5126,"count":48,"type":"VEC4"},{"bufferView":10,"byteOffset":0,"componentType":5126,"count":48,"type":"VEC2"}],"animations":[{"channels":[],"name":"Take 001","samplers":[]}],"asset":{"generator":"FBX2glTF v0.13.1","version":"2.0"},"bufferViews":[{"buffer":0,"byteLength":4,"byteOffset":0},{"buffer":0,"byteLength":540,"byteOffset":4,"target":34963},{"buffer":0,"byteLength":2052,"byteOffset":544,"target":34962},{"buffer":0,"byteLength":2052,"byteOffset":2596,"target":34962},{"buffer":0,"byteLength":2736,"byteOffset":4648,"target":34962},{"buffer":0,"byteLength":1368,"byteOffset":7384,"target":34962},{"buffer":0,"byteLength":252,"byteOffset":8752,"target":34963},{"buffer":0,"byteLength":576,"byteOffset":9004,"target":34962},{"buffer":0,"byteLength":576,"byteOffset":9580,"target":34962},{"buffer":0,"byteLength":768,"byteOffset":10156,"target":34962},{"buffer":0,"byteLength":384,"byteOffset":10924,"target":34962}],"buffers":[{"byteLength":11308,"uri":"SM_Tree_Dead_03.bin"}],"materials":[{"alphaMode":"OPAQUE","doubleSided":false,"extras":{"fromFBX":{"isTruePBR":false,"shadingModel":"Lambert"}},"name":"Trunk","pbrMetallicRoughness":{"baseColorFactor":[0.800000011920929,0,0,1],"metallicFactor":0.200000002980232,"roughnessFactor":0.800000011920929}},{"alphaMode":"OPAQUE","doubleSided":false,"extras":{"fromFBX":{"isTruePBR":false,"shadingModel":"Lambert"}},"name":"Leaves_Dead","pbrMetallicRoughness":{"baseColorFactor":[0,0.181814387440681,0.800000011920929,1],"metallicFactor":0.200000002980232,"roughnessFactor":0.800000011920929}}],"meshes":[{"name":"SM_Tree_Dead_03","primitives":[{"attributes":{"COLOR_0":4,"NORMAL":3,"POSITION":2,"TEXCOORD_0":5},"indices":1,"material":0,"mode":4},{"attributes":{"COLOR_0":9,"NORMAL":8,"POSITION":7,"TEXCOORD_0":10},"indices":6,"material":1,"mode":4}]}],"nodes":[{"mesh":0,"name":"SM_Tree_Dead_03","rotation":[0,0,0,1],"scale":[1,1,1],"translation":[0,0,0]}],"samplers":[{}],"scene":0,"scenes":[{"name":"Root Scene","nodes":[0]}]}