{"accessors":[{"bufferView":0,"byteOffset":0,"componentType":5126,"count":1,"max":[0],"min":[0],"type":"SCALAR"},{"bufferView":1,"byteOffset":0,"componentType":5123,"count":6762,"type":"SCALAR"},{"bufferView":2,"byteOffset":0,"componentType":5126,"count":5032,"max":[5.5155029296875,7.9932861328125,4.5645751953125],"min":[-4.59820556640625,-1.1427001953125,-5.748779296875],"type":"VEC3"},{"bufferView":3,"byteOffset":0,"componentType":5126,"count":5032,"type":"VEC3"},{"bufferView":4,"byteOffset":0,"componentType":5126,"count":5032,"type":"VEC4"},{"bufferView":5,"byteOffset":0,"componentType":5126,"count":5032,"type":"VEC2"},{"bufferView":6,"byteOffset":0,"componentType":5123,"count":9090,"type":"SCALAR"},{"bufferView":7,"byteOffset":0,"componentType":5126,"count":4242,"max":[5.93294191360474,10.0489130020142,6.34722900390625],"min":[-6.51010894775391,1.3675035238266,-6.77281522750854],"type":"VEC3"},{"bufferView":8,"byteOffset":0,"componentType":5126,"count":4242,"type":"VEC3"},{"bufferView":9,"byteOffset":0,"componentType":5126,"count":4242,"type":"VEC4"},{"bufferView":10,"byteOffset":0,"componentType":5126,"count":4242,"type":"VEC2"},{"bufferView":11,"byteOffset":0,"componentType":5123,"count":630,"type":"SCALAR"},{"bufferView":12,"byteOffset":0,"componentType":5126,"count":240,"max":[6.09415292739868,6.35301542282104,5.14387512207031],"min":[-4.16175603866577,0.557764530181885,-6.59348297119141],"type":"VEC3"},{"bufferView":13,"byteOffset":0,"componentType":5126,"count":240,"type":"VEC3"},{"bufferView":14,"byteOffset":0,"componentType":5126,"count":240,"type":"VEC4"},{"bufferView":15,"byteOffset":0,"componentType":5126,"count":240,"type":"VEC2"}],"animations":[{"channels":[],"name":"Take 001","samplers":[]}],"asset":{"generator":"FBX2glTF v0.13.1","version":"2.0"},"bufferViews":[{"buffer":0,"byteLength":4,"byteOffset":0},{"buffer":0,"byteLength":13524,"byteOffset":4,"target":34963},{"buffer":0,"byteLength":60384,"byteOffset":13528,"target":34962},{"buffer":0,"byteLength":60384,"byteOffset":73912,"target":34962},{"buffer":0,"byteLength":80512,"byteOffset":134296,"target":34962},{"buffer":0,"byteLength":40256,"byteOffset":214808,"target":34962},{"buffer":0,"byteLength":18180,"byteOffset":255064,"target":34963},{"buffer":0,"byteLength":50904,"byteOffset":273244,"target":34962},{"buffer":0,"byteLength":50904,"byteOffset":324148,"target":34962},{"buffer":0,"byteLength":67872,"byteOffset":375052,"target":34962},{"buffer":0,"byteLength":33936,"byteOffset":442924,"target":34962},{"buffer":0,"byteLength":1260,"byteOffset":476860,"target":34963},{"buffer":0,"byteLength":2880,"byteOffset":478120,"target":34962},{"buffer":0,"byteLength":2880,"byteOffset":481000,"target":34962},{"buffer":0,"byteLength":3840,"byteOffset":483880,"target":34962},{"buffer":0,"byteLength":1920,"byteOffset":487720,"target":34962}],"buffers":[{"byteLength":489640,"uri":"SM_Tree_Generic_Giant_01.bin"}],"materials":[{"alphaMode":"OPAQUE","doubleSided":false,"extras":{"fromFBX":{"isTruePBR":false,"shadingModel":"Lambert"}},"name":"Trunk","pbrMetallicRoughness":{"baseColorFactor":[0.800000011920929,0,0,1],"metallicFactor":0.200000002980232,"roughnessFactor":0.800000011920929}},{"alphaMode":"OPAQUE","doubleSided":false,"extras":{"fromFBX":{"isTruePBR":false,"shadingModel":"Lambert"}},"name":"Leave","pbrMetallicRoughness":{"baseColorFactor":[0.163994312286377,0.800000011920929,0,1],"metallicFactor":0.200000002980232,"roughnessFactor":0.800000011920929}},{"alphaMode":"OPAQUE","doubleSided":false,"extras":{"fromFBX":{"isTruePBR":false,"shadingModel":"Lambert"}},"name":"Leaves_Dead","pbrMetallicRoughness":{"baseColorFactor":[0,0.181814387440681,0.800000011920929,1],"metallicFactor":0.200000002980232,"roughnessFactor":0.800000011920929}}],"meshes":[{"name":"SM_Tree_Generic_Giant_01","primitives":[{"attributes":{"COLOR_0":4,"NORMAL":3,"POSITION":2,"TEXCOORD_0":5},"indices":1,"material":0,"mode":4},{"attributes":{"COLOR_0":9,"NORMAL":8,"POSITION":7,"TEXCOORD_0":10},"indices":6,"material":1,"mode":4},{"attributes":{"COLOR_0":14,"NORMAL":13,"POSITION":12,"TEXCOORD_0":15},"indices":11,"material":2,"mode":4}]}],"nodes":[{"mesh":0,"name":"SM_Tree_Generic_Giant_01","rotation":[0,0,0,1],"scale":[1,1,1],"translation":[0,0,0]}],"samplers":[{}],"scene":0,"scenes":[{"name":"Root Scene","nodes":[0]}]}