{"accessors":[{"bufferView":0,"byteOffset":0,"componentType":5126,"count":1,"max":[0],"min":[0],"type":"SCALAR"},{"bufferView":1,"byteOffset":0,"componentType":5123,"count":1248,"type":"SCALAR"},{"bufferView":2,"byteOffset":0,"componentType":5126,"count":784,"max":[0.654604256153107,0.523837506771088,1.14429664611816],"min":[-0.64999508857727,-0.51433646678925,-1.59475994110107],"type":"VEC3"},{"bufferView":3,"byteOffset":0,"componentType":5126,"count":784,"type":"VEC3"},{"bufferView":4,"byteOffset":0,"componentType":5126,"count":784,"type":"VEC2"}],"animations":[{"channels":[],"name":"Take 001","samplers":[]}],"asset":{"generator":"FBX2glTF v0.13.1","version":"2.0"},"bufferViews":[{"buffer":0,"byteLength":4,"byteOffset":0},{"buffer":0,"byteLength":2496,"byteOffset":4,"target":34963},{"buffer":0,"byteLength":9408,"byteOffset":2500,"target":34962},{"buffer":0,"byteLength":9408,"byteOffset":11908,"target":34962},{"buffer":0,"byteLength":6272,"byteOffset":21316,"target":34962}],"buffers":[{"byteLength":27588,"uri":"SM_Tree_Branch_01.bin"}],"images":[{"name":"PolygonNature","uri":"PolygonNature.png"}],"materials":[{"alphaMode":"OPAQUE","doubleSided":false,"extras":{"fromFBX":{"isTruePBR":false,"shadingModel":"Lambert"}},"name":"lambert2","pbrMetallicRoughness":{"baseColorFactor":[0.800000011920929,0.800000011920929,0.800000011920929,1],"baseColorTexture":{"index":0,"texCoord":0},"metallicFactor":0.200000002980232,"roughnessFactor":0.800000011920929}}],"meshes":[{"name":"SM_Tree_Branch_01","primitives":[{"attributes":{"NORMAL":3,"POSITION":2,"TEXCOORD_0":4},"indices":1,"material":0,"mode":4}]}],"nodes":[{"mesh":0,"name":"SM_Tree_Branch_01","rotation":[0,0,0,1],"scale":[1,1,1],"translation":[0,0,0]}],"samplers":[{}],"scene":0,"scenes":[{"name":"Root Scene","nodes":[0]}],"textures":[{"name":"file1","sampler":0,"source":0}]}