{"accessors":[{"bufferView":0,"byteOffset":0,"componentType":5126,"count":1,"max":[0],"min":[0],"type":"SCALAR"},{"bufferView":1,"byteOffset":0,"componentType":5123,"count":288,"type":"SCALAR"},{"bufferView":2,"byteOffset":0,"componentType":5126,"count":193,"max":[0.103075228631496,4.29353713989258,0.103075228631496],"min":[-0.1030752286315,0,-0.1030752286315],"type":"VEC3"},{"bufferView":3,"byteOffset":0,"componentType":5126,"count":193,"type":"VEC3"},{"bufferView":4,"byteOffset":0,"componentType":5126,"count":193,"type":"VEC4"},{"bufferView":5,"byteOffset":0,"componentType":5126,"count":193,"type":"VEC2"},{"bufferView":6,"byteOffset":0,"componentType":5123,"count":1710,"type":"SCALAR"},{"bufferView":7,"byteOffset":0,"componentType":5126,"count":798,"max":[1.24253082275391,4.54661130905151,1.16128730773926],"min":[-1.21139526367188,1.01468324661255,-1.12801086902618],"type":"VEC3"},{"bufferView":8,"byteOffset":0,"componentType":5126,"count":798,"type":"VEC3"},{"bufferView":9,"byteOffset":0,"componentType":5126,"count":798,"type":"VEC4"},{"bufferView":10,"byteOffset":0,"componentType":5126,"count":798,"type":"VEC2"}],"animations":[{"channels":[],"name":"Take 001","samplers":[]}],"asset":{"generator":"FBX2glTF v0.13.1","version":"2.0"},"bufferViews":[{"buffer":0,"byteLength":4,"byteOffset":0},{"buffer":0,"byteLength":576,"byteOffset":4,"target":34963},{"buffer":0,"byteLength":2316,"byteOffset":580,"target":34962},{"buffer":0,"byteLength":2316,"byteOffset":2896,"target":34962},{"buffer":0,"byteLength":3088,"byteOffset":5212,"target":34962},{"buffer":0,"byteLength":1544,"byteOffset":8300,"target":34962},{"buffer":0,"byteLength":3420,"byteOffset":9844,"target":34963},{"buffer":0,"byteLength":9576,"byteOffset":13264,"target":34962},{"buffer":0,"byteLength":9576,"byteOffset":22840,"target":34962},{"buffer":0,"byteLength":12768,"byteOffset":32416,"target":34962},{"buffer":0,"byteLength":6384,"byteOffset":45184,"target":34962}],"buffers":[{"byteLength":51568,"uri":"SM_Tree_Birch_01.bin"}],"materials":[{"alphaMode":"OPAQUE","doubleSided":false,"extras":{"fromFBX":{"isTruePBR":false,"shadingModel":"Lambert"}},"name":"Trunk","pbrMetallicRoughness":{"baseColorFactor":[0.800000011920929,0,0,1],"metallicFactor":0.200000002980232,"roughnessFactor":0.800000011920929}},{"alphaMode":"OPAQUE","doubleSided":false,"extras":{"fromFBX":{"isTruePBR":false,"shadingModel":"Lambert"}},"name":"Leave","pbrMetallicRoughness":{"baseColorFactor":[0.163994312286377,0.800000011920929,0,1],"metallicFactor":0.200000002980232,"roughnessFactor":0.800000011920929}}],"meshes":[{"name":"SM_Tree_Birch_01","primitives":[{"attributes":{"COLOR_0":4,"NORMAL":3,"POSITION":2,"TEXCOORD_0":5},"indices":1,"material":0,"mode":4},{"attributes":{"COLOR_0":9,"NORMAL":8,"POSITION":7,"TEXCOORD_0":10},"indices":6,"material":1,"mode":4}]}],"nodes":[{"mesh":0,"name":"SM_Tree_Birch_01","rotation":[0,0,0,1],"scale":[1,1,1],"translation":[0,0,0]}],"samplers":[{}],"scene":0,"scenes":[{"name":"Root Scene","nodes":[0]}]}