{"accessors":[{"bufferView":0,"byteOffset":0,"componentType":5126,"count":1,"max":[0],"min":[0],"type":"SCALAR"},{"bufferView":1,"byteOffset":0,"componentType":5123,"count":312,"type":"SCALAR"},{"bufferView":2,"byteOffset":0,"componentType":5126,"count":128,"max":[0.0953395888209343,0,0.155588924884796],"min":[-0.09276895970106,-5.08756113052368,-0.18601226806641],"type":"VEC3"},{"bufferView":3,"byteOffset":0,"componentType":5126,"count":128,"type":"VEC3"},{"bufferView":4,"byteOffset":0,"componentType":5126,"count":128,"type":"VEC4"},{"bufferView":5,"byteOffset":0,"componentType":5126,"count":128,"type":"VEC2"}],"animations":[{"channels":[],"name":"Take 001","samplers":[]}],"asset":{"generator":"FBX2glTF v0.13.1","version":"2.0"},"bufferViews":[{"buffer":0,"byteLength":4,"byteOffset":0},{"buffer":0,"byteLength":624,"byteOffset":4,"target":34963},{"buffer":0,"byteLength":1536,"byteOffset":628,"target":34962},{"buffer":0,"byteLength":1536,"byteOffset":2164,"target":34962},{"buffer":0,"byteLength":2048,"byteOffset":3700,"target":34962},{"buffer":0,"byteLength":1024,"byteOffset":5748,"target":34962}],"buffers":[{"byteLength":6772,"uri":"SM_Tree_Vines_03.bin"}],"images":[{"name":"FernLeaf","uri":"FernLeaf.png"}],"materials":[{"alphaMode":"OPAQUE","doubleSided":false,"extras":{"fromFBX":{"isTruePBR":false,"shadingModel":"Phong"}},"name":"Texture_0109","pbrMetallicRoughness":{"baseColorFactor":[0.800000011920929,0.800000011920929,0.800000011920929,0],"baseColorTexture":{"index":0,"texCoord":0},"metallicFactor":0.400000005960464,"roughnessFactor":0.490532398223877}}],"meshes":[{"name":"SM_Tree_Vines_03","primitives":[{"attributes":{"COLOR_0":4,"NORMAL":3,"POSITION":2,"TEXCOORD_0":5},"indices":1,"material":0,"mode":4}]}],"nodes":[{"mesh":0,"name":"SM_Tree_Vines_03","rotation":[0,0,0,1],"scale":[1,1,1],"translation":[0,0,0]}],"samplers":[{}],"scene":0,"scenes":[{"name":"Root Scene","nodes":[0]}],"textures":[{"name":"file705","sampler":0,"source":0}]}