{"accessors":[{"bufferView":0,"byteOffset":0,"componentType":5126,"count":1,"max":[0],"min":[0],"type":"SCALAR"},{"bufferView":1,"byteOffset":0,"componentType":5123,"count":240,"type":"SCALAR"},{"bufferView":2,"byteOffset":0,"componentType":5126,"count":161,"max":[0.12593112885952,3.03545761108398,0.12593138217926],"min":[-0.12593112885952,0,-0.12593138217926],"type":"VEC3"},{"bufferView":3,"byteOffset":0,"componentType":5126,"count":161,"type":"VEC3"},{"bufferView":4,"byteOffset":0,"componentType":5126,"count":161,"type":"VEC4"},{"bufferView":5,"byteOffset":0,"componentType":5126,"count":161,"type":"VEC2"},{"bufferView":6,"byteOffset":0,"componentType":5123,"count":792,"type":"SCALAR"},{"bufferView":7,"byteOffset":0,"componentType":5126,"count":255,"max":[1.00233459472656,3.09725666046143,0.894059121608734],"min":[-0.91252899169922,0.552545547485352,-1.02089142799377],"type":"VEC3"},{"bufferView":8,"byteOffset":0,"componentType":5126,"count":255,"type":"VEC3"},{"bufferView":9,"byteOffset":0,"componentType":5126,"count":255,"type":"VEC4"},{"bufferView":10,"byteOffset":0,"componentType":5126,"count":255,"type":"VEC2"}],"animations":[{"channels":[],"name":"Take 001","samplers":[]}],"asset":{"generator":"FBX2glTF v0.13.1","version":"2.0"},"bufferViews":[{"buffer":0,"byteLength":4,"byteOffset":0},{"buffer":0,"byteLength":480,"byteOffset":4,"target":34963},{"buffer":0,"byteLength":1932,"byteOffset":484,"target":34962},{"buffer":0,"byteLength":1932,"byteOffset":2416,"target":34962},{"buffer":0,"byteLength":2576,"byteOffset":4348,"target":34962},{"buffer":0,"byteLength":1288,"byteOffset":6924,"target":34962},{"buffer":0,"byteLength":1584,"byteOffset":8212,"target":34963},{"buffer":0,"byteLength":3060,"byteOffset":9796,"target":34962},{"buffer":0,"byteLength":3060,"byteOffset":12856,"target":34962},{"buffer":0,"byteLength":4080,"byteOffset":15916,"target":34962},{"buffer":0,"byteLength":2040,"byteOffset":19996,"target":34962}],"buffers":[{"byteLength":22036,"uri":"SM_Tree_Pine_Small_02.bin"}],"materials":[{"alphaMode":"OPAQUE","doubleSided":false,"extras":{"fromFBX":{"isTruePBR":false,"shadingModel":"Lambert"}},"name":"Trunk","pbrMetallicRoughness":{"baseColorFactor":[0.800000011920929,0,0,1],"metallicFactor":0.200000002980232,"roughnessFactor":0.800000011920929}},{"alphaMode":"OPAQUE","doubleSided":false,"extras":{"fromFBX":{"isTruePBR":false,"shadingModel":"Lambert"}},"name":"Leave","pbrMetallicRoughness":{"baseColorFactor":[0.163994312286377,0.800000011920929,0,1],"metallicFactor":0.200000002980232,"roughnessFactor":0.800000011920929}}],"meshes":[{"name":"SM_Tree_Pine_Small_02","primitives":[{"attributes":{"COLOR_0":4,"NORMAL":3,"POSITION":2,"TEXCOORD_0":5},"indices":1,"material":0,"mode":4},{"attributes":{"COLOR_0":9,"NORMAL":8,"POSITION":7,"TEXCOORD_0":10},"indices":6,"material":1,"mode":4}]}],"nodes":[{"mesh":0,"name":"SM_Tree_Pine_Small_02","rotation":[0,0,0,1],"scale":[1,1,1],"translation":[0,0,0]}],"samplers":[{}],"scene":0,"scenes":[{"name":"Root Scene","nodes":[0]}]}