{"accessors":[{"bufferView":0,"byteOffset":0,"componentType":5123,"count":1035,"type":"SCALAR"},{"bufferView":1,"byteOffset":0,"componentType":5126,"count":993,"max":[4.83009099960327,1.73058998584747,2.18391680717468],"min":[-5.28755044937134,-1.90939962863922,-3.92341637611389],"type":"VEC3"},{"bufferView":2,"byteOffset":0,"componentType":5126,"count":993,"type":"VEC3"},{"bufferView":3,"byteOffset":0,"componentType":5126,"count":993,"type":"VEC2"}],"asset":{"generator":"FBX2glTF v0.13.1","version":"2.0"},"bufferViews":[{"buffer":0,"byteLength":2070,"byteOffset":0,"target":34963},{"buffer":0,"byteLength":11916,"byteOffset":2072,"target":34962},{"buffer":0,"byteLength":11916,"byteOffset":13988,"target":34962},{"buffer":0,"byteLength":7944,"byteOffset":25904,"target":34962}],"buffers":[{"byteLength":33848,"uri":"SM_Terrain_GrassEdge_01.bin"}],"images":[{"name":"PolygonNature","uri":"PolygonNature.png"}],"materials":[{"alphaMode":"OPAQUE","doubleSided":false,"extras":{"fromFBX":{"isTruePBR":false,"shadingModel":"Phong"}},"name":"lambert1","pbrMetallicRoughness":{"baseColorFactor":[1,1,1,1],"baseColorTexture":{"index":0,"texCoord":0},"metallicFactor":0.400000005960464,"roughnessFactor":0.301511347293854}}],"meshes":[{"name":"SM_Terrain_GrassEdge_01","primitives":[{"attributes":{"NORMAL":2,"POSITION":1,"TEXCOORD_0":3},"indices":0,"material":0,"mode":4}]}],"nodes":[{"mesh":0,"name":"SM_Terrain_GrassEdge_01","rotation":[0.0000000814603353660459,0,0,1],"scale":[1,1,1],"translation":[0,0,0]}],"samplers":[{}],"scene":0,"scenes":[{"name":"Root Scene","nodes":[0]}],"textures":[{"name":"base_color_texture","sampler":0,"source":0}]}