{"accessors":[{"bufferView":0,"byteOffset":0,"componentType":5126,"count":1,"max":[0],"min":[0],"type":"SCALAR"},{"bufferView":1,"byteOffset":0,"componentType":5123,"count":360,"type":"SCALAR"},{"bufferView":2,"byteOffset":0,"componentType":5126,"count":344,"max":[0.624201536178589,0.111617125570774,0.729068994522095],"min":[-0.62420153617859,0,-0.72906899452209],"type":"VEC3"},{"bufferView":3,"byteOffset":0,"componentType":5126,"count":344,"type":"VEC3"},{"bufferView":4,"byteOffset":0,"componentType":5126,"count":344,"type":"VEC2"}],"animations":[{"channels":[],"name":"Take 001","samplers":[]}],"asset":{"generator":"FBX2glTF v0.13.1","version":"2.0"},"bufferViews":[{"buffer":0,"byteLength":4,"byteOffset":0},{"buffer":0,"byteLength":720,"byteOffset":4,"target":34963},{"buffer":0,"byteLength":4128,"byteOffset":724,"target":34962},{"buffer":0,"byteLength":4128,"byteOffset":4852,"target":34962},{"buffer":0,"byteLength":2752,"byteOffset":8980,"target":34962}],"buffers":[{"byteLength":11732,"uri":"SM_Terrain_Swamp_Growth_02.bin"}],"images":[{"name":"PolygonNature_01","uri":"../Textures/PolygonNature_01.png"}],"materials":[{"alphaMode":"OPAQUE","doubleSided":false,"extras":{"fromFBX":{"isTruePBR":false,"shadingModel":"Lambert"}},"name":"lambert2","pbrMetallicRoughness":{"baseColorFactor":[0.800000011920929,0.800000011920929,0.800000011920929,1],"baseColorTexture":{"index":0,"texCoord":0},"metallicFactor":0.200000002980232,"roughnessFactor":0.800000011920929}}],"meshes":[{"name":"SM_Terrain_Swamp_Growth_02","primitives":[{"attributes":{"NORMAL":3,"POSITION":2,"TEXCOORD_0":4},"indices":1,"material":0,"mode":4}]}],"nodes":[{"mesh":0,"name":"SM_Terrain_Swamp_Growth_02","rotation":[0,0,0,1],"scale":[1,1,1],"translation":[0,0,0]}],"samplers":[{}],"scene":0,"scenes":[{"name":"Root Scene","nodes":[0]}],"textures":[{"name":"PolygonNature_01_1","sampler":0,"source":0}]}