{"accessors":[{"bufferView":0,"byteOffset":0,"componentType":5126,"count":1,"max":[0],"min":[0],"type":"SCALAR"},{"bufferView":1,"byteOffset":0,"componentType":5123,"count":552,"type":"SCALAR"},{"bufferView":2,"byteOffset":0,"componentType":5126,"count":296,"max":[0.103126533329487,4.68599271774292,0.103122711181641],"min":[-0.73406219482422,0,-0.49332809448242],"type":"VEC3"},{"bufferView":3,"byteOffset":0,"componentType":5126,"count":296,"type":"VEC3"},{"bufferView":4,"byteOffset":0,"componentType":5126,"count":296,"type":"VEC4"},{"bufferView":5,"byteOffset":0,"componentType":5126,"count":296,"type":"VEC2"},{"bufferView":6,"byteOffset":0,"componentType":5123,"count":990,"type":"SCALAR"},{"bufferView":7,"byteOffset":0,"componentType":5126,"count":462,"max":[1.05481719970703,4.89054012298584,1.05885779857635],"min":[-1.46749877929688,1.42825615406036,-1.40180587768555],"type":"VEC3"},{"bufferView":8,"byteOffset":0,"componentType":5126,"count":462,"type":"VEC3"},{"bufferView":9,"byteOffset":0,"componentType":5126,"count":462,"type":"VEC4"},{"bufferView":10,"byteOffset":0,"componentType":5126,"count":462,"type":"VEC2"}],"animations":[{"channels":[],"name":"Take 001","samplers":[]}],"asset":{"generator":"FBX2glTF v0.13.1","version":"2.0"},"bufferViews":[{"buffer":0,"byteLength":4,"byteOffset":0},{"buffer":0,"byteLength":1104,"byteOffset":4,"target":34963},{"buffer":0,"byteLength":3552,"byteOffset":1108,"target":34962},{"buffer":0,"byteLength":3552,"byteOffset":4660,"target":34962},{"buffer":0,"byteLength":4736,"byteOffset":8212,"target":34962},{"buffer":0,"byteLength":2368,"byteOffset":12948,"target":34962},{"buffer":0,"byteLength":1980,"byteOffset":15316,"target":34963},{"buffer":0,"byteLength":5544,"byteOffset":17296,"target":34962},{"buffer":0,"byteLength":5544,"byteOffset":22840,"target":34962},{"buffer":0,"byteLength":7392,"byteOffset":28384,"target":34962},{"buffer":0,"byteLength":3696,"byteOffset":35776,"target":34962}],"buffers":[{"byteLength":39472,"uri":"SM_Tree_Birch_04.bin"}],"materials":[{"alphaMode":"OPAQUE","doubleSided":false,"extras":{"fromFBX":{"isTruePBR":false,"shadingModel":"Lambert"}},"name":"Trunk","pbrMetallicRoughness":{"baseColorFactor":[0.800000011920929,0,0,1],"metallicFactor":0.200000002980232,"roughnessFactor":0.800000011920929}},{"alphaMode":"OPAQUE","doubleSided":false,"extras":{"fromFBX":{"isTruePBR":false,"shadingModel":"Lambert"}},"name":"Leave","pbrMetallicRoughness":{"baseColorFactor":[0.163994312286377,0.800000011920929,0,1],"metallicFactor":0.200000002980232,"roughnessFactor":0.800000011920929}}],"meshes":[{"name":"SM_Tree_Birch_04","primitives":[{"attributes":{"COLOR_0":4,"NORMAL":3,"POSITION":2,"TEXCOORD_0":5},"indices":1,"material":0,"mode":4},{"attributes":{"COLOR_0":9,"NORMAL":8,"POSITION":7,"TEXCOORD_0":10},"indices":6,"material":1,"mode":4}]}],"nodes":[{"mesh":0,"name":"SM_Tree_Birch_04","rotation":[0,0,0,1],"scale":[1,1,1],"translation":[0,0,0]}],"samplers":[{}],"scene":0,"scenes":[{"name":"Root Scene","nodes":[0]}]}