{"accessors":[{"bufferView":0,"byteOffset":0,"componentType":5126,"count":1,"max":[0],"min":[0],"type":"SCALAR"},{"bufferView":1,"byteOffset":0,"componentType":5123,"count":930,"type":"SCALAR"},{"bufferView":2,"byteOffset":0,"componentType":5126,"count":690,"max":[0.463634490966797,6.42256498336792,0.580546617507935],"min":[-0.53706741333008,-0.3076491355896,-0.54984974861145],"type":"VEC3"},{"bufferView":3,"byteOffset":0,"componentType":5126,"count":690,"type":"VEC3"},{"bufferView":4,"byteOffset":0,"componentType":5126,"count":690,"type":"VEC4"},{"bufferView":5,"byteOffset":0,"componentType":5126,"count":690,"type":"VEC2"}],"animations":[{"channels":[],"name":"Take 001","samplers":[]}],"asset":{"generator":"FBX2glTF v0.13.1","version":"2.0"},"bufferViews":[{"buffer":0,"byteLength":4,"byteOffset":0},{"buffer":0,"byteLength":1860,"byteOffset":4,"target":34963},{"buffer":0,"byteLength":8280,"byteOffset":1864,"target":34962},{"buffer":0,"byteLength":8280,"byteOffset":10144,"target":34962},{"buffer":0,"byteLength":11040,"byteOffset":18424,"target":34962},{"buffer":0,"byteLength":5520,"byteOffset":29464,"target":34962}],"buffers":[{"byteLength":34984,"uri":"SM_Tree_Pine_Dead_01.bin"}],"images":[{"name":"PolygonNature_01","uri":"../Textures/PolygonNature_01.png"}],"materials":[{"alphaMode":"OPAQUE","doubleSided":false,"extras":{"fromFBX":{"isTruePBR":false,"shadingModel":"Lambert"}},"name":"lambert2","pbrMetallicRoughness":{"baseColorFactor":[0.800000011920929,0.800000011920929,0.800000011920929,1],"baseColorTexture":{"index":0,"texCoord":0},"metallicFactor":0.200000002980232,"roughnessFactor":0.800000011920929}}],"meshes":[{"name":"SM_Tree_Pine_Dead_01","primitives":[{"attributes":{"COLOR_0":4,"NORMAL":3,"POSITION":2,"TEXCOORD_0":5},"indices":1,"material":0,"mode":4}]}],"nodes":[{"mesh":0,"name":"SM_Tree_Pine_Dead_01","rotation":[0,0,0,1],"scale":[1,1,1],"translation":[0,0,0]}],"samplers":[{}],"scene":0,"scenes":[{"name":"Root Scene","nodes":[0]}],"textures":[{"name":"file1","sampler":0,"source":0}]}