{"accessors":[{"bufferView":0,"byteOffset":0,"componentType":5126,"count":1,"max":[0],"min":[0],"type":"SCALAR"},{"bufferView":1,"byteOffset":0,"componentType":5123,"count":924,"type":"SCALAR"},{"bufferView":2,"byteOffset":0,"componentType":5126,"count":768,"max":[1.99341237545013,4.69278192520142,1.83317184448242],"min":[-1.99341559410095,-0.00260512484238,-1.83168816566467],"type":"VEC3"},{"bufferView":3,"byteOffset":0,"componentType":5126,"count":768,"type":"VEC3"},{"bufferView":4,"byteOffset":0,"componentType":5126,"count":768,"type":"VEC4"},{"bufferView":5,"byteOffset":0,"componentType":5126,"count":768,"type":"VEC2"}],"animations":[{"channels":[],"name":"Take 001","samplers":[]}],"asset":{"generator":"FBX2glTF v0.13.1","version":"2.0"},"bufferViews":[{"buffer":0,"byteLength":4,"byteOffset":0},{"buffer":0,"byteLength":1848,"byteOffset":4,"target":34963},{"buffer":0,"byteLength":9216,"byteOffset":1852,"target":34962},{"buffer":0,"byteLength":9216,"byteOffset":11068,"target":34962},{"buffer":0,"byteLength":12288,"byteOffset":20284,"target":34962},{"buffer":0,"byteLength":6144,"byteOffset":32572,"target":34962}],"buffers":[{"byteLength":38716,"uri":"SM_Tree_04.bin"}],"images":[{"name":"PolygonNature_01","uri":"../Textures/PolygonNature_01.png"}],"materials":[{"alphaMode":"OPAQUE","doubleSided":false,"extras":{"fromFBX":{"isTruePBR":false,"shadingModel":"Lambert"}},"name":"lambert32","pbrMetallicRoughness":{"baseColorFactor":[0.800000011920929,0.800000011920929,0.800000011920929,1],"baseColorTexture":{"index":0,"texCoord":0},"metallicFactor":0.200000002980232,"roughnessFactor":0.800000011920929}}],"meshes":[{"name":"SM_Tree_04","primitives":[{"attributes":{"COLOR_0":4,"NORMAL":3,"POSITION":2,"TEXCOORD_0":5},"indices":1,"material":0,"mode":4}]}],"nodes":[{"mesh":0,"name":"SM_Tree_04","rotation":[0,0,0,1],"scale":[1,1,1],"translation":[0,0,0]}],"samplers":[{}],"scene":0,"scenes":[{"name":"Root Scene","nodes":[0]}],"textures":[{"name":"file968","sampler":0,"source":0}]}