{"accessors":[{"bufferView":0,"byteOffset":0,"componentType":5126,"count":1,"max":[0],"min":[0],"type":"SCALAR"},{"bufferView":1,"byteOffset":0,"componentType":5123,"count":2478,"type":"SCALAR"},{"bufferView":2,"byteOffset":0,"componentType":5126,"count":1750,"max":[0.694461286067963,0.884130835533142,0.707089364528656],"min":[-1.18358910083771,-0.85678052902222,-1.2569283246994],"type":"VEC3"},{"bufferView":3,"byteOffset":0,"componentType":5126,"count":1750,"type":"VEC3"},{"bufferView":4,"byteOffset":0,"componentType":5126,"count":1750,"type":"VEC2"}],"animations":[{"channels":[],"name":"Take 001","samplers":[]}],"asset":{"generator":"FBX2glTF v0.13.1","version":"2.0"},"bufferViews":[{"buffer":0,"byteLength":4,"byteOffset":0},{"buffer":0,"byteLength":4956,"byteOffset":4,"target":34963},{"buffer":0,"byteLength":21000,"byteOffset":4960,"target":34962},{"buffer":0,"byteLength":21000,"byteOffset":25960,"target":34962},{"buffer":0,"byteLength":14000,"byteOffset":46960,"target":34962}],"buffers":[{"byteLength":60960,"uri":"SM_Tree_Swamp_Stump_01.bin"}],"images":[{"name":"PolygonNature","uri":"PolygonNature.png"}],"materials":[{"alphaMode":"OPAQUE","doubleSided":false,"extras":{"fromFBX":{"isTruePBR":false,"shadingModel":"Lambert"}},"name":"lambert2","pbrMetallicRoughness":{"baseColorFactor":[0.800000011920929,0.800000011920929,0.800000011920929,1],"baseColorTexture":{"index":0,"texCoord":0},"metallicFactor":0.200000002980232,"roughnessFactor":0.800000011920929}}],"meshes":[{"name":"SM_Tree_Swamp_Stump_01","primitives":[{"attributes":{"NORMAL":3,"POSITION":2,"TEXCOORD_0":4},"indices":1,"material":0,"mode":4}]}],"nodes":[{"mesh":0,"name":"SM_Tree_Swamp_Stump_01","rotation":[0,0,0,1],"scale":[1,1,1],"translation":[0,0,0]}],"samplers":[{}],"scene":0,"scenes":[{"name":"Root Scene","nodes":[0]}],"textures":[{"name":"file1","sampler":0,"source":0}]}