{"accessors":[{"bufferView":0,"byteOffset":0,"componentType":5126,"count":1,"max":[0],"min":[0],"type":"SCALAR"},{"bufferView":1,"byteOffset":0,"componentType":5123,"count":1134,"type":"SCALAR"},{"bufferView":2,"byteOffset":0,"componentType":5126,"count":750,"max":[0.717909097671509,4.82637214660645,1.18513810634613],"min":[-0.74321913719177,-0.09075430035591,-1.63970649242401],"type":"VEC3"},{"bufferView":3,"byteOffset":0,"componentType":5126,"count":750,"type":"VEC3"},{"bufferView":4,"byteOffset":0,"componentType":5126,"count":750,"type":"VEC4"},{"bufferView":5,"byteOffset":0,"componentType":5126,"count":750,"type":"VEC2"},{"bufferView":6,"byteOffset":0,"componentType":5123,"count":2790,"type":"SCALAR"},{"bufferView":7,"byteOffset":0,"componentType":5126,"count":1302,"max":[1.74102020263672,5.51125478744507,2.04186630249023],"min":[-1.68472290039062,2.7139368057251,-2.18626403808594],"type":"VEC3"},{"bufferView":8,"byteOffset":0,"componentType":5126,"count":1302,"type":"VEC3"},{"bufferView":9,"byteOffset":0,"componentType":5126,"count":1302,"type":"VEC4"},{"bufferView":10,"byteOffset":0,"componentType":5126,"count":1302,"type":"VEC2"}],"animations":[{"channels":[],"name":"Take 001","samplers":[]}],"asset":{"generator":"FBX2glTF v0.13.1","version":"2.0"},"bufferViews":[{"buffer":0,"byteLength":4,"byteOffset":0},{"buffer":0,"byteLength":2268,"byteOffset":4,"target":34963},{"buffer":0,"byteLength":9000,"byteOffset":2272,"target":34962},{"buffer":0,"byteLength":9000,"byteOffset":11272,"target":34962},{"buffer":0,"byteLength":12000,"byteOffset":20272,"target":34962},{"buffer":0,"byteLength":6000,"byteOffset":32272,"target":34962},{"buffer":0,"byteLength":5580,"byteOffset":38272,"target":34963},{"buffer":0,"byteLength":15624,"byteOffset":43852,"target":34962},{"buffer":0,"byteLength":15624,"byteOffset":59476,"target":34962},{"buffer":0,"byteLength":20832,"byteOffset":75100,"target":34962},{"buffer":0,"byteLength":10416,"byteOffset":95932,"target":34962}],"buffers":[{"byteLength":106348,"uri":"SM_Tree_Generic_01.bin"}],"materials":[{"alphaMode":"OPAQUE","doubleSided":false,"extras":{"fromFBX":{"isTruePBR":false,"shadingModel":"Lambert"}},"name":"Trunk","pbrMetallicRoughness":{"baseColorFactor":[0.800000011920929,0,0,1],"metallicFactor":0.200000002980232,"roughnessFactor":0.800000011920929}},{"alphaMode":"OPAQUE","doubleSided":false,"extras":{"fromFBX":{"isTruePBR":false,"shadingModel":"Lambert"}},"name":"Leave","pbrMetallicRoughness":{"baseColorFactor":[0.163994312286377,0.800000011920929,0,1],"metallicFactor":0.200000002980232,"roughnessFactor":0.800000011920929}}],"meshes":[{"name":"SM_Tree_Generic_01","primitives":[{"attributes":{"COLOR_0":4,"NORMAL":3,"POSITION":2,"TEXCOORD_0":5},"indices":1,"material":0,"mode":4},{"attributes":{"COLOR_0":9,"NORMAL":8,"POSITION":7,"TEXCOORD_0":10},"indices":6,"material":1,"mode":4}]}],"nodes":[{"mesh":0,"name":"SM_Tree_Generic_01","rotation":[0,0,0,1],"scale":[1,1,1],"translation":[0,0,0]}],"samplers":[{}],"scene":0,"scenes":[{"name":"Root Scene","nodes":[0]}]}