{"accessors":[{"bufferView":0,"byteOffset":0,"componentType":5126,"count":1,"max":[0],"min":[0],"type":"SCALAR"},{"bufferView":1,"byteOffset":0,"componentType":5123,"count":216,"type":"SCALAR"},{"bufferView":2,"byteOffset":0,"componentType":5126,"count":132,"max":[0.0930823460221291,0.241556212306023,0.514443337917328],"min":[-0.09438730031252,-0.24155621230602,-0.49766975641251],"type":"VEC3"},{"bufferView":3,"byteOffset":0,"componentType":5126,"count":132,"type":"VEC3"},{"bufferView":4,"byteOffset":0,"componentType":5126,"count":132,"type":"VEC2"}],"animations":[{"channels":[],"name":"Take 001","samplers":[]}],"asset":{"generator":"FBX2glTF v0.13.1","version":"2.0"},"bufferViews":[{"buffer":0,"byteLength":4,"byteOffset":0},{"buffer":0,"byteLength":432,"byteOffset":4,"target":34963},{"buffer":0,"byteLength":1584,"byteOffset":436,"target":34962},{"buffer":0,"byteLength":1584,"byteOffset":2020,"target":34962},{"buffer":0,"byteLength":1056,"byteOffset":3604,"target":34962}],"buffers":[{"byteLength":4660,"uri":"SM_Tree_Swamp_Root_01.bin"}],"images":[{"name":"PolygonNature","uri":"PolygonNature.png"}],"materials":[{"alphaMode":"OPAQUE","doubleSided":false,"extras":{"fromFBX":{"isTruePBR":false,"shadingModel":"Lambert"}},"name":"lambert27","pbrMetallicRoughness":{"baseColorFactor":[0.800000011920929,0.800000011920929,0.800000011920929,1],"baseColorTexture":{"index":0,"texCoord":0},"metallicFactor":0.200000002980232,"roughnessFactor":0.800000011920929}}],"meshes":[{"name":"SM_Tree_Swamp_Root_01","primitives":[{"attributes":{"NORMAL":3,"POSITION":2,"TEXCOORD_0":4},"indices":1,"material":0,"mode":4}]}],"nodes":[{"mesh":0,"name":"SM_Tree_Swamp_Root_01","rotation":[0,0,0,1],"scale":[1,1,1],"translation":[0,0,0]}],"samplers":[{}],"scene":0,"scenes":[{"name":"Root Scene","nodes":[0]}],"textures":[{"name":"file1012","sampler":0,"source":0}]}