{"accessors":[{"bufferView":0,"byteOffset":0,"componentType":5126,"count":1,"max":[0],"min":[0],"type":"SCALAR"},{"bufferView":1,"byteOffset":0,"componentType":5123,"count":636,"type":"SCALAR"},{"bufferView":2,"byteOffset":0,"componentType":5126,"count":381,"max":[0.160980224609375,2.40982985496521,0.323366165161133],"min":[-0.34775543212891,0,-0.33707618713379],"type":"VEC3"},{"bufferView":3,"byteOffset":0,"componentType":5126,"count":381,"type":"VEC3"},{"bufferView":4,"byteOffset":0,"componentType":5126,"count":381,"type":"VEC4"},{"bufferView":5,"byteOffset":0,"componentType":5126,"count":381,"type":"VEC2"},{"bufferView":6,"byteOffset":0,"componentType":5123,"count":252,"type":"SCALAR"},{"bufferView":7,"byteOffset":0,"componentType":5126,"count":96,"max":[0.511497497558594,2.66267514228821,0.571979522705078],"min":[-0.67723846435547,0.750417292118073,-0.49765586853027],"type":"VEC3"},{"bufferView":8,"byteOffset":0,"componentType":5126,"count":96,"type":"VEC3"},{"bufferView":9,"byteOffset":0,"componentType":5126,"count":96,"type":"VEC4"},{"bufferView":10,"byteOffset":0,"componentType":5126,"count":96,"type":"VEC2"}],"animations":[{"channels":[],"name":"Take 001","samplers":[]}],"asset":{"generator":"FBX2glTF v0.13.1","version":"2.0"},"bufferViews":[{"buffer":0,"byteLength":4,"byteOffset":0},{"buffer":0,"byteLength":1272,"byteOffset":4,"target":34963},{"buffer":0,"byteLength":4572,"byteOffset":1276,"target":34962},{"buffer":0,"byteLength":4572,"byteOffset":5848,"target":34962},{"buffer":0,"byteLength":6096,"byteOffset":10420,"target":34962},{"buffer":0,"byteLength":3048,"byteOffset":16516,"target":34962},{"buffer":0,"byteLength":504,"byteOffset":19564,"target":34963},{"buffer":0,"byteLength":1152,"byteOffset":20068,"target":34962},{"buffer":0,"byteLength":1152,"byteOffset":21220,"target":34962},{"buffer":0,"byteLength":1536,"byteOffset":22372,"target":34962},{"buffer":0,"byteLength":768,"byteOffset":23908,"target":34962}],"buffers":[{"byteLength":24676,"uri":"SM_Tree_Dead_02.bin"}],"materials":[{"alphaMode":"OPAQUE","doubleSided":false,"extras":{"fromFBX":{"isTruePBR":false,"shadingModel":"Lambert"}},"name":"Trunk","pbrMetallicRoughness":{"baseColorFactor":[0.800000011920929,0,0,1],"metallicFactor":0.200000002980232,"roughnessFactor":0.800000011920929}},{"alphaMode":"OPAQUE","doubleSided":false,"extras":{"fromFBX":{"isTruePBR":false,"shadingModel":"Lambert"}},"name":"Leaves_Dead","pbrMetallicRoughness":{"baseColorFactor":[0,0.181814387440681,0.800000011920929,1],"metallicFactor":0.200000002980232,"roughnessFactor":0.800000011920929}}],"meshes":[{"name":"SM_Tree_Dead_02","primitives":[{"attributes":{"COLOR_0":4,"NORMAL":3,"POSITION":2,"TEXCOORD_0":5},"indices":1,"material":0,"mode":4},{"attributes":{"COLOR_0":9,"NORMAL":8,"POSITION":7,"TEXCOORD_0":10},"indices":6,"material":1,"mode":4}]}],"nodes":[{"mesh":0,"name":"SM_Tree_Dead_02","rotation":[0,0,0,1],"scale":[1,1,1],"translation":[0,0,0]}],"samplers":[{}],"scene":0,"scenes":[{"name":"Root Scene","nodes":[0]}]}