{"accessors":[{"bufferView":0,"byteOffset":0,"componentType":5126,"count":1,"max":[0],"min":[0],"type":"SCALAR"},{"bufferView":1,"byteOffset":0,"componentType":5123,"count":5130,"type":"SCALAR"},{"bufferView":2,"byteOffset":0,"componentType":5126,"count":4722,"max":[1.64205169677734,5.07382249832153,1.65077590942383],"min":[-1.1805419921875,-0.09075427055359,-1.89033889770508],"type":"VEC3"},{"bufferView":3,"byteOffset":0,"componentType":5126,"count":4722,"type":"VEC3"},{"bufferView":4,"byteOffset":0,"componentType":5126,"count":4722,"type":"VEC4"},{"bufferView":5,"byteOffset":0,"componentType":5126,"count":4722,"type":"VEC2"},{"bufferView":6,"byteOffset":0,"componentType":5123,"count":1890,"type":"SCALAR"},{"bufferView":7,"byteOffset":0,"componentType":5126,"count":720,"max":[1.97447967529297,5.23996257781982,1.9139518737793],"min":[-1.58349609375,1.7870112657547,-2.19759750366211],"type":"VEC3"},{"bufferView":8,"byteOffset":0,"componentType":5126,"count":720,"type":"VEC3"},{"bufferView":9,"byteOffset":0,"componentType":5126,"count":720,"type":"VEC4"},{"bufferView":10,"byteOffset":0,"componentType":5126,"count":720,"type":"VEC2"}],"animations":[{"channels":[],"name":"Take 001","samplers":[]}],"asset":{"generator":"FBX2glTF v0.13.1","version":"2.0"},"bufferViews":[{"buffer":0,"byteLength":4,"byteOffset":0},{"buffer":0,"byteLength":10260,"byteOffset":4,"target":34963},{"buffer":0,"byteLength":56664,"byteOffset":10264,"target":34962},{"buffer":0,"byteLength":56664,"byteOffset":66928,"target":34962},{"buffer":0,"byteLength":75552,"byteOffset":123592,"target":34962},{"buffer":0,"byteLength":37776,"byteOffset":199144,"target":34962},{"buffer":0,"byteLength":3780,"byteOffset":236920,"target":34963},{"buffer":0,"byteLength":8640,"byteOffset":240700,"target":34962},{"buffer":0,"byteLength":8640,"byteOffset":249340,"target":34962},{"buffer":0,"byteLength":11520,"byteOffset":257980,"target":34962},{"buffer":0,"byteLength":5760,"byteOffset":269500,"target":34962}],"buffers":[{"byteLength":275260,"uri":"SM_Tree_Generic_Dead_01.bin"}],"materials":[{"alphaMode":"OPAQUE","doubleSided":false,"extras":{"fromFBX":{"isTruePBR":false,"shadingModel":"Lambert"}},"name":"Trunk","pbrMetallicRoughness":{"baseColorFactor":[0.800000011920929,0,0,1],"metallicFactor":0.200000002980232,"roughnessFactor":0.800000011920929}},{"alphaMode":"OPAQUE","doubleSided":false,"extras":{"fromFBX":{"isTruePBR":false,"shadingModel":"Lambert"}},"name":"Leaves_Dead","pbrMetallicRoughness":{"baseColorFactor":[0,0.181814387440681,0.800000011920929,1],"metallicFactor":0.200000002980232,"roughnessFactor":0.800000011920929}}],"meshes":[{"name":"SM_Tree_Generic_Dead_01","primitives":[{"attributes":{"COLOR_0":4,"NORMAL":3,"POSITION":2,"TEXCOORD_0":5},"indices":1,"material":0,"mode":4},{"attributes":{"COLOR_0":9,"NORMAL":8,"POSITION":7,"TEXCOORD_0":10},"indices":6,"material":1,"mode":4}]}],"nodes":[{"mesh":0,"name":"SM_Tree_Generic_Dead_01","rotation":[0,0,0,1],"scale":[1,1,1],"translation":[0,0,0]}],"samplers":[{}],"scene":0,"scenes":[{"name":"Root Scene","nodes":[0]}]}