{"accessors":[{"bufferView":0,"byteOffset":0,"componentType":5126,"count":1,"max":[0],"min":[0],"type":"SCALAR"},{"bufferView":1,"byteOffset":0,"componentType":5123,"count":1434,"type":"SCALAR"},{"bufferView":2,"byteOffset":0,"componentType":5126,"count":1004,"max":[0.603347897529602,5.08968448638916,0.951151967048645],"min":[-1.07757294178009,-0.77430927753448,-0.72327828407288],"type":"VEC3"},{"bufferView":3,"byteOffset":0,"componentType":5126,"count":1004,"type":"VEC3"},{"bufferView":4,"byteOffset":0,"componentType":5126,"count":1004,"type":"VEC4"},{"bufferView":5,"byteOffset":0,"componentType":5126,"count":1004,"type":"VEC2"},{"bufferView":6,"byteOffset":0,"componentType":5123,"count":1332,"type":"SCALAR"},{"bufferView":7,"byteOffset":0,"componentType":5126,"count":556,"max":[1.49792075157166,5.90545654296875,1.64247643947601],"min":[-1.86585640907288,0.883305132389069,-1.71545767784119],"type":"VEC3"},{"bufferView":8,"byteOffset":0,"componentType":5126,"count":556,"type":"VEC3"},{"bufferView":9,"byteOffset":0,"componentType":5126,"count":556,"type":"VEC4"},{"bufferView":10,"byteOffset":0,"componentType":5126,"count":556,"type":"VEC2"}],"animations":[{"channels":[],"name":"Take 001","samplers":[]}],"asset":{"generator":"FBX2glTF v0.13.1","version":"2.0"},"bufferViews":[{"buffer":0,"byteLength":4,"byteOffset":0},{"buffer":0,"byteLength":2868,"byteOffset":4,"target":34963},{"buffer":0,"byteLength":12048,"byteOffset":2872,"target":34962},{"buffer":0,"byteLength":12048,"byteOffset":14920,"target":34962},{"buffer":0,"byteLength":16064,"byteOffset":26968,"target":34962},{"buffer":0,"byteLength":8032,"byteOffset":43032,"target":34962},{"buffer":0,"byteLength":2664,"byteOffset":51064,"target":34963},{"buffer":0,"byteLength":6672,"byteOffset":53728,"target":34962},{"buffer":0,"byteLength":6672,"byteOffset":60400,"target":34962},{"buffer":0,"byteLength":8896,"byteOffset":67072,"target":34962},{"buffer":0,"byteLength":4448,"byteOffset":75968,"target":34962}],"buffers":[{"byteLength":80416,"uri":"SM_Tree_Willow_Medium_01.bin"}],"materials":[{"alphaMode":"OPAQUE","doubleSided":false,"extras":{"fromFBX":{"isTruePBR":false,"shadingModel":"Lambert"}},"name":"Trunk","pbrMetallicRoughness":{"baseColorFactor":[0.800000011920929,0,0,1],"metallicFactor":0.200000002980232,"roughnessFactor":0.800000011920929}},{"alphaMode":"OPAQUE","doubleSided":false,"extras":{"fromFBX":{"isTruePBR":false,"shadingModel":"Lambert"}},"name":"Leave","pbrMetallicRoughness":{"baseColorFactor":[0.163994312286377,0.800000011920929,0,1],"metallicFactor":0.200000002980232,"roughnessFactor":0.800000011920929}}],"meshes":[{"name":"SM_Tree_Willow_Medium_01","primitives":[{"attributes":{"COLOR_0":4,"NORMAL":3,"POSITION":2,"TEXCOORD_0":5},"indices":1,"material":0,"mode":4},{"attributes":{"COLOR_0":9,"NORMAL":8,"POSITION":7,"TEXCOORD_0":10},"indices":6,"material":1,"mode":4}]}],"nodes":[{"mesh":0,"name":"SM_Tree_Willow_Medium_01","rotation":[0,0,0,1],"scale":[1,1,1],"translation":[0,0,0]}],"samplers":[{}],"scene":0,"scenes":[{"name":"Root Scene","nodes":[0]}]}