{"accessors":[{"bufferView":0,"byteOffset":0,"componentType":5126,"count":1,"max":[0],"min":[0],"type":"SCALAR"},{"bufferView":1,"byteOffset":0,"componentType":5123,"count":288,"type":"SCALAR"},{"bufferView":2,"byteOffset":0,"componentType":5126,"count":130,"max":[0.0534567087888718,1.60366296768188,0.0534567087888718],"min":[-0.05345670878887,0,-0.05345670878887],"type":"VEC3"},{"bufferView":3,"byteOffset":0,"componentType":5126,"count":130,"type":"VEC3"},{"bufferView":4,"byteOffset":0,"componentType":5126,"count":130,"type":"VEC4"},{"bufferView":5,"byteOffset":0,"componentType":5126,"count":130,"type":"VEC2"},{"bufferView":6,"byteOffset":0,"componentType":5123,"count":720,"type":"SCALAR"},{"bufferView":7,"byteOffset":0,"componentType":5126,"count":336,"max":[0.650352478027344,1.87500512599945,0.696699142456055],"min":[-0.515625,0.306779384613037,-0.57710647583008],"type":"VEC3"},{"bufferView":8,"byteOffset":0,"componentType":5126,"count":336,"type":"VEC3"},{"bufferView":9,"byteOffset":0,"componentType":5126,"count":336,"type":"VEC4"},{"bufferView":10,"byteOffset":0,"componentType":5126,"count":336,"type":"VEC2"}],"animations":[{"channels":[],"name":"Take 001","samplers":[]}],"asset":{"generator":"FBX2glTF v0.13.1","version":"2.0"},"bufferViews":[{"buffer":0,"byteLength":4,"byteOffset":0},{"buffer":0,"byteLength":576,"byteOffset":4,"target":34963},{"buffer":0,"byteLength":1560,"byteOffset":580,"target":34962},{"buffer":0,"byteLength":1560,"byteOffset":2140,"target":34962},{"buffer":0,"byteLength":2080,"byteOffset":3700,"target":34962},{"buffer":0,"byteLength":1040,"byteOffset":5780,"target":34962},{"buffer":0,"byteLength":1440,"byteOffset":6820,"target":34963},{"buffer":0,"byteLength":4032,"byteOffset":8260,"target":34962},{"buffer":0,"byteLength":4032,"byteOffset":12292,"target":34962},{"buffer":0,"byteLength":5376,"byteOffset":16324,"target":34962},{"buffer":0,"byteLength":2688,"byteOffset":21700,"target":34962}],"buffers":[{"byteLength":24388,"uri":"SM_Tree_Birch_Small_01.bin"}],"materials":[{"alphaMode":"OPAQUE","doubleSided":false,"extras":{"fromFBX":{"isTruePBR":false,"shadingModel":"Lambert"}},"name":"Trunk","pbrMetallicRoughness":{"baseColorFactor":[0.800000011920929,0,0,1],"metallicFactor":0.200000002980232,"roughnessFactor":0.800000011920929}},{"alphaMode":"OPAQUE","doubleSided":false,"extras":{"fromFBX":{"isTruePBR":false,"shadingModel":"Lambert"}},"name":"Leave","pbrMetallicRoughness":{"baseColorFactor":[0.163994312286377,0.800000011920929,0,1],"metallicFactor":0.200000002980232,"roughnessFactor":0.800000011920929}}],"meshes":[{"name":"SM_Tree_Birch_Small_01","primitives":[{"attributes":{"COLOR_0":4,"NORMAL":3,"POSITION":2,"TEXCOORD_0":5},"indices":1,"material":0,"mode":4},{"attributes":{"COLOR_0":9,"NORMAL":8,"POSITION":7,"TEXCOORD_0":10},"indices":6,"material":1,"mode":4}]}],"nodes":[{"mesh":0,"name":"SM_Tree_Birch_Small_01","rotation":[0,0,0,1],"scale":[1,1,1],"translation":[0,0,0]}],"samplers":[{}],"scene":0,"scenes":[{"name":"Root Scene","nodes":[0]}]}