{"accessors":[{"bufferView":0,"byteOffset":0,"componentType":5126,"count":1,"max":[0],"min":[0],"type":"SCALAR"},{"bufferView":1,"byteOffset":0,"componentType":5123,"count":1512,"type":"SCALAR"},{"bufferView":2,"byteOffset":0,"componentType":5126,"count":1408,"max":[1.33430159091949,3.66736507415771,0.830970823764801],"min":[-0.99472653865814,-0.16645747423172,-0.98263740539551],"type":"VEC3"},{"bufferView":3,"byteOffset":0,"componentType":5126,"count":1408,"type":"VEC3"},{"bufferView":4,"byteOffset":0,"componentType":5126,"count":1408,"type":"VEC4"},{"bufferView":5,"byteOffset":0,"componentType":5126,"count":1408,"type":"VEC2"}],"animations":[{"channels":[],"name":"Take 001","samplers":[]}],"asset":{"generator":"FBX2glTF v0.13.1","version":"2.0"},"bufferViews":[{"buffer":0,"byteLength":4,"byteOffset":0},{"buffer":0,"byteLength":3024,"byteOffset":4,"target":34963},{"buffer":0,"byteLength":16896,"byteOffset":3028,"target":34962},{"buffer":0,"byteLength":16896,"byteOffset":19924,"target":34962},{"buffer":0,"byteLength":22528,"byteOffset":36820,"target":34962},{"buffer":0,"byteLength":11264,"byteOffset":59348,"target":34962}],"buffers":[{"byteLength":70612,"uri":"SM_Tree_Round_04.bin"}],"images":[{"name":"PolygonNature","uri":"PolygonNature.png"}],"materials":[{"alphaMode":"OPAQUE","doubleSided":false,"extras":{"fromFBX":{"isTruePBR":false,"shadingModel":"Lambert"}},"name":"lambert2","pbrMetallicRoughness":{"baseColorFactor":[0.800000011920929,0.800000011920929,0.800000011920929,1],"baseColorTexture":{"index":0,"texCoord":0},"metallicFactor":0.200000002980232,"roughnessFactor":0.800000011920929}}],"meshes":[{"name":"SM_Tree_Round_04","primitives":[{"attributes":{"COLOR_0":4,"NORMAL":3,"POSITION":2,"TEXCOORD_0":5},"indices":1,"material":0,"mode":4}]}],"nodes":[{"mesh":0,"name":"SM_Tree_Round_04","rotation":[0,0,0,1],"scale":[1,1,1],"translation":[0,0,0]}],"samplers":[{}],"scene":0,"scenes":[{"name":"Root Scene","nodes":[0]}],"textures":[{"name":"file1","sampler":0,"source":0}]}