{"accessors":[{"bufferView":0,"byteOffset":0,"componentType":5126,"count":1,"max":[0],"min":[0],"type":"SCALAR"},{"bufferView":1,"byteOffset":0,"componentType":5123,"count":3297,"type":"SCALAR"},{"bufferView":2,"byteOffset":0,"componentType":5126,"count":3161,"max":[1.6640796661377,4.75718259811401,1.30039405822754],"min":[-2.13966059684753,-0.09610275179148,-1.34600067138672],"type":"VEC3"},{"bufferView":3,"byteOffset":0,"componentType":5126,"count":3161,"type":"VEC3"},{"bufferView":4,"byteOffset":0,"componentType":5126,"count":3161,"type":"VEC4"},{"bufferView":5,"byteOffset":0,"componentType":5126,"count":3161,"type":"VEC2"}],"animations":[{"channels":[],"name":"Take 001","samplers":[]}],"asset":{"generator":"FBX2glTF v0.13.1","version":"2.0"},"bufferViews":[{"buffer":0,"byteLength":4,"byteOffset":0},{"buffer":0,"byteLength":6594,"byteOffset":4,"target":34963},{"buffer":0,"byteLength":37932,"byteOffset":6600,"target":34962},{"buffer":0,"byteLength":37932,"byteOffset":44532,"target":34962},{"buffer":0,"byteLength":50576,"byteOffset":82464,"target":34962},{"buffer":0,"byteLength":25288,"byteOffset":133040,"target":34962}],"buffers":[{"byteLength":158328,"uri":"SM_Tree_Round_05.bin"}],"images":[{"name":"PolygonNature","uri":"PolygonNature.png"}],"materials":[{"alphaMode":"OPAQUE","doubleSided":false,"extras":{"fromFBX":{"isTruePBR":false,"shadingModel":"Lambert"}},"name":"lambert2","pbrMetallicRoughness":{"baseColorFactor":[0.800000011920929,0.800000011920929,0.800000011920929,1],"baseColorTexture":{"index":0,"texCoord":0},"metallicFactor":0.200000002980232,"roughnessFactor":0.800000011920929}}],"meshes":[{"name":"SM_Tree_Round_05","primitives":[{"attributes":{"COLOR_0":4,"NORMAL":3,"POSITION":2,"TEXCOORD_0":5},"indices":1,"material":0,"mode":4}]}],"nodes":[{"mesh":0,"name":"SM_Tree_Round_05","rotation":[0,0,0,1],"scale":[1,1,1],"translation":[0,0,0]}],"samplers":[{}],"scene":0,"scenes":[{"name":"Root Scene","nodes":[0]}],"textures":[{"name":"file1","sampler":0,"source":0}]}