{"accessors":[{"bufferView":0,"byteOffset":0,"componentType":5126,"count":1,"max":[0],"min":[0],"type":"SCALAR"},{"bufferView":1,"byteOffset":0,"componentType":5123,"count":330,"type":"SCALAR"},{"bufferView":2,"byteOffset":0,"componentType":5126,"count":206,"max":[0.204430922865868,0.0267890058457851,0.172329932451248],"min":[-0.24200205504894,-0.05437576770782,-0.50444477796555],"type":"VEC3"},{"bufferView":3,"byteOffset":0,"componentType":5126,"count":206,"type":"VEC3"},{"bufferView":4,"byteOffset":0,"componentType":5126,"count":206,"type":"VEC2"}],"animations":[{"channels":[],"name":"Take 001","samplers":[]}],"asset":{"generator":"FBX2glTF v0.13.1","version":"2.0"},"bufferViews":[{"buffer":0,"byteLength":4,"byteOffset":0},{"buffer":0,"byteLength":660,"byteOffset":4,"target":34963},{"buffer":0,"byteLength":2472,"byteOffset":664,"target":34962},{"buffer":0,"byteLength":2472,"byteOffset":3136,"target":34962},{"buffer":0,"byteLength":1648,"byteOffset":5608,"target":34962}],"buffers":[{"byteLength":7256,"uri":"SM_Tree_Twig_02.bin"}],"images":[{"name":"PolygonNature","uri":"PolygonNature.png"}],"materials":[{"alphaMode":"OPAQUE","doubleSided":false,"extras":{"fromFBX":{"isTruePBR":false,"shadingModel":"Lambert"}},"name":"lambert2","pbrMetallicRoughness":{"baseColorFactor":[0.800000011920929,0.800000011920929,0.800000011920929,1],"baseColorTexture":{"index":0,"texCoord":0},"metallicFactor":0.200000002980232,"roughnessFactor":0.800000011920929}}],"meshes":[{"name":"SM_Tree_Twig_02","primitives":[{"attributes":{"NORMAL":3,"POSITION":2,"TEXCOORD_0":4},"indices":1,"material":0,"mode":4}]}],"nodes":[{"mesh":0,"name":"SM_Tree_Twig_02","rotation":[0,0,0,1],"scale":[1,1,1],"translation":[0,0,0]}],"samplers":[{}],"scene":0,"scenes":[{"name":"Root Scene","nodes":[0]}],"textures":[{"name":"file1","sampler":0,"source":0}]}