{"accessors":[{"bufferView":0,"byteOffset":0,"componentType":5126,"count":1,"max":[0],"min":[0],"type":"SCALAR"},{"bufferView":1,"byteOffset":0,"componentType":5123,"count":1002,"type":"SCALAR"},{"bufferView":2,"byteOffset":0,"componentType":5126,"count":992,"max":[1.5909423828125,6.21417236328125,1.4156494140625],"min":[-1.5909423828125,0,-1.4156494140625],"type":"VEC3"},{"bufferView":3,"byteOffset":0,"componentType":5126,"count":992,"type":"VEC3"},{"bufferView":4,"byteOffset":0,"componentType":5126,"count":992,"type":"VEC4"},{"bufferView":5,"byteOffset":0,"componentType":5126,"count":992,"type":"VEC2"}],"animations":[{"channels":[],"name":"Take 001","samplers":[]}],"asset":{"generator":"FBX2glTF v0.13.1","version":"2.0"},"bufferViews":[{"buffer":0,"byteLength":4,"byteOffset":0},{"buffer":0,"byteLength":2004,"byteOffset":4,"target":34963},{"buffer":0,"byteLength":11904,"byteOffset":2008,"target":34962},{"buffer":0,"byteLength":11904,"byteOffset":13912,"target":34962},{"buffer":0,"byteLength":15872,"byteOffset":25816,"target":34962},{"buffer":0,"byteLength":7936,"byteOffset":41688,"target":34962}],"buffers":[{"byteLength":49624,"uri":"SM_Tree_03.bin"}],"images":[{"name":"PolygonNature","uri":"PolygonNature.png"}],"materials":[{"alphaMode":"OPAQUE","doubleSided":false,"extras":{"fromFBX":{"isTruePBR":false,"shadingModel":"Lambert"}},"name":"lambert2","pbrMetallicRoughness":{"baseColorFactor":[0.800000011920929,0.800000011920929,0.800000011920929,1],"baseColorTexture":{"index":0,"texCoord":0},"metallicFactor":0.200000002980232,"roughnessFactor":0.800000011920929}}],"meshes":[{"name":"SM_Tree_03","primitives":[{"attributes":{"COLOR_0":4,"NORMAL":3,"POSITION":2,"TEXCOORD_0":5},"indices":1,"material":0,"mode":4}]}],"nodes":[{"mesh":0,"name":"SM_Tree_03","rotation":[0,0,0,1],"scale":[1,1,1],"translation":[0,0,0]}],"samplers":[{}],"scene":0,"scenes":[{"name":"Root Scene","nodes":[0]}],"textures":[{"name":"file1","sampler":0,"source":0}]}