{"accessors":[{"bufferView":0,"byteOffset":0,"componentType":5126,"count":1,"max":[0],"min":[0],"type":"SCALAR"},{"bufferView":1,"byteOffset":0,"componentType":5123,"count":828,"type":"SCALAR"},{"bufferView":2,"byteOffset":0,"componentType":5126,"count":596,"max":[0.719429910182953,4.41369915008545,0.742015361785889],"min":[-0.75894898176193,-0.0985393896699,-0.77915143966675],"type":"VEC3"},{"bufferView":3,"byteOffset":0,"componentType":5126,"count":596,"type":"VEC3"},{"bufferView":4,"byteOffset":0,"componentType":5126,"count":596,"type":"VEC4"},{"bufferView":5,"byteOffset":0,"componentType":5126,"count":596,"type":"VEC2"}],"animations":[{"channels":[],"name":"Take 001","samplers":[]}],"asset":{"generator":"FBX2glTF v0.13.1","version":"2.0"},"bufferViews":[{"buffer":0,"byteLength":4,"byteOffset":0},{"buffer":0,"byteLength":1656,"byteOffset":4,"target":34963},{"buffer":0,"byteLength":7152,"byteOffset":1660,"target":34962},{"buffer":0,"byteLength":7152,"byteOffset":8812,"target":34962},{"buffer":0,"byteLength":9536,"byteOffset":15964,"target":34962},{"buffer":0,"byteLength":4768,"byteOffset":25500,"target":34962}],"buffers":[{"byteLength":30268,"uri":"SM_Tree_PolyPine_02.bin"}],"images":[{"name":"PolygonNature","uri":"PolygonNature.png"}],"materials":[{"alphaMode":"OPAQUE","doubleSided":false,"extras":{"fromFBX":{"isTruePBR":false,"shadingModel":"Lambert"}},"name":"lambert2","pbrMetallicRoughness":{"baseColorFactor":[0.800000011920929,0.800000011920929,0.800000011920929,1],"baseColorTexture":{"index":0,"texCoord":0},"metallicFactor":0.200000002980232,"roughnessFactor":0.800000011920929}}],"meshes":[{"name":"SM_Tree_PolyPine_02","primitives":[{"attributes":{"COLOR_0":4,"NORMAL":3,"POSITION":2,"TEXCOORD_0":5},"indices":1,"material":0,"mode":4}]}],"nodes":[{"mesh":0,"name":"SM_Tree_PolyPine_02","rotation":[0,0,0,1],"scale":[1,1,1],"translation":[0,0,0]}],"samplers":[{}],"scene":0,"scenes":[{"name":"Root Scene","nodes":[0]}],"textures":[{"name":"file1","sampler":0,"source":0}]}