{"accessors":[{"bufferView":0,"byteOffset":0,"componentType":5126,"count":1,"max":[0],"min":[0],"type":"SCALAR"},{"bufferView":1,"byteOffset":0,"componentType":5123,"count":402,"type":"SCALAR"},{"bufferView":2,"byteOffset":0,"componentType":5126,"count":274,"max":[0.855682790279388,1.07259738445282,0.301051944494247],"min":[-0.61196881532669,-0.6463885307312,-4.74708127975464],"type":"VEC3"},{"bufferView":3,"byteOffset":0,"componentType":5126,"count":274,"type":"VEC3"},{"bufferView":4,"byteOffset":0,"componentType":5126,"count":274,"type":"VEC2"}],"animations":[{"channels":[],"name":"Take 001","samplers":[]}],"asset":{"generator":"FBX2glTF v0.13.1","version":"2.0"},"bufferViews":[{"buffer":0,"byteLength":4,"byteOffset":0},{"buffer":0,"byteLength":804,"byteOffset":4,"target":34963},{"buffer":0,"byteLength":3288,"byteOffset":808,"target":34962},{"buffer":0,"byteLength":3288,"byteOffset":4096,"target":34962},{"buffer":0,"byteLength":2192,"byteOffset":7384,"target":34962}],"buffers":[{"byteLength":9576,"uri":"SM_Tree_Swamp_Branch_02.bin"}],"images":[{"name":"PolygonNature","uri":"PolygonNature.png"}],"materials":[{"alphaMode":"OPAQUE","doubleSided":false,"extras":{"fromFBX":{"isTruePBR":false,"shadingModel":"Lambert"}},"name":"lambert2","pbrMetallicRoughness":{"baseColorFactor":[0.800000011920929,0.800000011920929,0.800000011920929,1],"baseColorTexture":{"index":0,"texCoord":0},"metallicFactor":0.200000002980232,"roughnessFactor":0.800000011920929}}],"meshes":[{"name":"SM_Tree_Swamp_Branch_02","primitives":[{"attributes":{"NORMAL":3,"POSITION":2,"TEXCOORD_0":4},"indices":1,"material":0,"mode":4}]}],"nodes":[{"mesh":0,"name":"SM_Tree_Swamp_Branch_02","rotation":[0,0,0,1],"scale":[1,1,1],"translation":[0,0,0]}],"samplers":[{}],"scene":0,"scenes":[{"name":"Root Scene","nodes":[0]}],"textures":[{"name":"file1","sampler":0,"source":0}]}