{"accessors":[{"bufferView":0,"byteOffset":0,"componentType":5126,"count":1,"max":[0],"min":[0],"type":"SCALAR"},{"bufferView":1,"byteOffset":0,"componentType":5123,"count":294,"type":"SCALAR"},{"bufferView":2,"byteOffset":0,"componentType":5126,"count":224,"max":[0.597614288330078,0.654391646385193,0.590551853179932],"min":[-0.6324987411499,-0.67964744567871,-0.57420825958252],"type":"VEC3"},{"bufferView":3,"byteOffset":0,"componentType":5126,"count":224,"type":"VEC3"},{"bufferView":4,"byteOffset":0,"componentType":5126,"count":224,"type":"VEC4"},{"bufferView":5,"byteOffset":0,"componentType":5126,"count":224,"type":"VEC2"}],"animations":[{"channels":[],"name":"Take 001","samplers":[]}],"asset":{"generator":"FBX2glTF v0.13.1","version":"2.0"},"bufferViews":[{"buffer":0,"byteLength":4,"byteOffset":0},{"buffer":0,"byteLength":588,"byteOffset":4,"target":34963},{"buffer":0,"byteLength":2688,"byteOffset":592,"target":34962},{"buffer":0,"byteLength":2688,"byteOffset":3280,"target":34962},{"buffer":0,"byteLength":3584,"byteOffset":5968,"target":34962},{"buffer":0,"byteLength":1792,"byteOffset":9552,"target":34962}],"buffers":[{"byteLength":11344,"uri":"SM_Tree_Pine_Base_01.bin"}],"images":[{"name":"PolygonNature_01","uri":"../Textures/PolygonNature_01.png"}],"materials":[{"alphaMode":"OPAQUE","doubleSided":false,"extras":{"fromFBX":{"isTruePBR":false,"shadingModel":"Lambert"}},"name":"lambert13","pbrMetallicRoughness":{"baseColorFactor":[0.800000011920929,0.800000011920929,0.800000011920929,1],"baseColorTexture":{"index":0,"texCoord":0},"metallicFactor":0.200000002980232,"roughnessFactor":0.800000011920929}}],"meshes":[{"name":"SM_Tree_Pine_Base_01","primitives":[{"attributes":{"COLOR_0":4,"NORMAL":3,"POSITION":2,"TEXCOORD_0":5},"indices":1,"material":0,"mode":4}]}],"nodes":[{"mesh":0,"name":"SM_Tree_Pine_Base_01","rotation":[0,0,0,1],"scale":[1,1,1],"translation":[0,0,0]}],"samplers":[{}],"scene":0,"scenes":[{"name":"Root Scene","nodes":[0]}],"textures":[{"name":"file1","sampler":0,"source":0}]}