{"accessors":[{"bufferView":0,"byteOffset":0,"componentType":5126,"count":1,"max":[0],"min":[0],"type":"SCALAR"},{"bufferView":1,"byteOffset":0,"componentType":5123,"count":930,"type":"SCALAR"},{"bufferView":2,"byteOffset":0,"componentType":5126,"count":558,"max":[0.233184814453125,3.25021624565125,0.364449501037598],"min":[-0.34775543212891,0,-0.49135494232178],"type":"VEC3"},{"bufferView":3,"byteOffset":0,"componentType":5126,"count":558,"type":"VEC3"},{"bufferView":4,"byteOffset":0,"componentType":5126,"count":558,"type":"VEC4"},{"bufferView":5,"byteOffset":0,"componentType":5126,"count":558,"type":"VEC2"},{"bufferView":6,"byteOffset":0,"componentType":5123,"count":378,"type":"SCALAR"},{"bufferView":7,"byteOffset":0,"componentType":5126,"count":144,"max":[0.568672180175781,3.50306153297424,0.613062858581543],"min":[-0.67723846435547,0.701170206069946,-0.81031227111816],"type":"VEC3"},{"bufferView":8,"byteOffset":0,"componentType":5126,"count":144,"type":"VEC3"},{"bufferView":9,"byteOffset":0,"componentType":5126,"count":144,"type":"VEC4"},{"bufferView":10,"byteOffset":0,"componentType":5126,"count":144,"type":"VEC2"}],"animations":[{"channels":[],"name":"Take 001","samplers":[]}],"asset":{"generator":"FBX2glTF v0.13.1","version":"2.0"},"bufferViews":[{"buffer":0,"byteLength":4,"byteOffset":0},{"buffer":0,"byteLength":1860,"byteOffset":4,"target":34963},{"buffer":0,"byteLength":6696,"byteOffset":1864,"target":34962},{"buffer":0,"byteLength":6696,"byteOffset":8560,"target":34962},{"buffer":0,"byteLength":8928,"byteOffset":15256,"target":34962},{"buffer":0,"byteLength":4464,"byteOffset":24184,"target":34962},{"buffer":0,"byteLength":756,"byteOffset":28648,"target":34963},{"buffer":0,"byteLength":1728,"byteOffset":29404,"target":34962},{"buffer":0,"byteLength":1728,"byteOffset":31132,"target":34962},{"buffer":0,"byteLength":2304,"byteOffset":32860,"target":34962},{"buffer":0,"byteLength":1152,"byteOffset":35164,"target":34962}],"buffers":[{"byteLength":36316,"uri":"SM_Tree_Dead_01.bin"}],"materials":[{"alphaMode":"OPAQUE","doubleSided":false,"extras":{"fromFBX":{"isTruePBR":false,"shadingModel":"Lambert"}},"name":"Trunk","pbrMetallicRoughness":{"baseColorFactor":[0.800000011920929,0,0,1],"metallicFactor":0.200000002980232,"roughnessFactor":0.800000011920929}},{"alphaMode":"OPAQUE","doubleSided":false,"extras":{"fromFBX":{"isTruePBR":false,"shadingModel":"Lambert"}},"name":"Leaves_Dead","pbrMetallicRoughness":{"baseColorFactor":[0,0.181814387440681,0.800000011920929,1],"metallicFactor":0.200000002980232,"roughnessFactor":0.800000011920929}}],"meshes":[{"name":"SM_Tree_Dead_01","primitives":[{"attributes":{"COLOR_0":4,"NORMAL":3,"POSITION":2,"TEXCOORD_0":5},"indices":1,"material":0,"mode":4},{"attributes":{"COLOR_0":9,"NORMAL":8,"POSITION":7,"TEXCOORD_0":10},"indices":6,"material":1,"mode":4}]}],"nodes":[{"mesh":0,"name":"SM_Tree_Dead_01","rotation":[0,0,0,1],"scale":[1,1,1],"translation":[0,0,0]}],"samplers":[{}],"scene":0,"scenes":[{"name":"Root Scene","nodes":[0]}]}