{"accessors":[{"bufferView":0,"byteOffset":0,"componentType":5126,"count":1,"max":[0],"min":[0],"type":"SCALAR"},{"bufferView":1,"byteOffset":0,"componentType":5123,"count":1677,"type":"SCALAR"},{"bufferView":2,"byteOffset":0,"componentType":5126,"count":1667,"max":[0.785895824432373,7.79574823379517,0.744919896125793],"min":[-0.77652043104172,-0.1371576488018,-0.75738704204559],"type":"VEC3"},{"bufferView":3,"byteOffset":0,"componentType":5126,"count":1667,"type":"VEC3"},{"bufferView":4,"byteOffset":0,"componentType":5126,"count":1667,"type":"VEC4"},{"bufferView":5,"byteOffset":0,"componentType":5126,"count":1667,"type":"VEC2"}],"animations":[{"channels":[],"name":"Take 001","samplers":[]}],"asset":{"generator":"FBX2glTF v0.13.1","version":"2.0"},"bufferViews":[{"buffer":0,"byteLength":4,"byteOffset":0},{"buffer":0,"byteLength":3354,"byteOffset":4,"target":34963},{"buffer":0,"byteLength":20004,"byteOffset":3360,"target":34962},{"buffer":0,"byteLength":20004,"byteOffset":23364,"target":34962},{"buffer":0,"byteLength":26672,"byteOffset":43368,"target":34962},{"buffer":0,"byteLength":13336,"byteOffset":70040,"target":34962}],"buffers":[{"byteLength":83376,"uri":"SM_Tree_PolyPine_Sparse_01.bin"}],"images":[{"name":"PolygonNature","uri":"PolygonNature.png"}],"materials":[{"alphaMode":"OPAQUE","doubleSided":false,"extras":{"fromFBX":{"isTruePBR":false,"shadingModel":"Lambert"}},"name":"lambert2","pbrMetallicRoughness":{"baseColorFactor":[0.800000011920929,0.800000011920929,0.800000011920929,1],"baseColorTexture":{"index":0,"texCoord":0},"metallicFactor":0.200000002980232,"roughnessFactor":0.800000011920929}}],"meshes":[{"name":"SM_Tree_PolyPine_Sparse_01","primitives":[{"attributes":{"COLOR_0":4,"NORMAL":3,"POSITION":2,"TEXCOORD_0":5},"indices":1,"material":0,"mode":4}]}],"nodes":[{"mesh":0,"name":"SM_Tree_PolyPine_Sparse_01","rotation":[0,0,0,1],"scale":[1,1,1],"translation":[0,0,0]}],"samplers":[{}],"scene":0,"scenes":[{"name":"Root Scene","nodes":[0]}],"textures":[{"name":"file1","sampler":0,"source":0}]}