{"accessors":[{"bufferView":0,"byteOffset":0,"componentType":5126,"count":1,"max":[0],"min":[0],"type":"SCALAR"},{"bufferView":1,"byteOffset":0,"componentType":5123,"count":900,"type":"SCALAR"},{"bufferView":2,"byteOffset":0,"componentType":5126,"count":891,"max":[1.52940368652344,6.24554443359375,1.50588989257812],"min":[-1.52938842773438,0,-1.50588989257812],"type":"VEC3"},{"bufferView":3,"byteOffset":0,"componentType":5126,"count":891,"type":"VEC3"},{"bufferView":4,"byteOffset":0,"componentType":5126,"count":891,"type":"VEC4"},{"bufferView":5,"byteOffset":0,"componentType":5126,"count":891,"type":"VEC2"}],"animations":[{"channels":[],"name":"Take 001","samplers":[]}],"asset":{"generator":"FBX2glTF v0.13.1","version":"2.0"},"bufferViews":[{"buffer":0,"byteLength":4,"byteOffset":0},{"buffer":0,"byteLength":1800,"byteOffset":4,"target":34963},{"buffer":0,"byteLength":10692,"byteOffset":1804,"target":34962},{"buffer":0,"byteLength":10692,"byteOffset":12496,"target":34962},{"buffer":0,"byteLength":14256,"byteOffset":23188,"target":34962},{"buffer":0,"byteLength":7128,"byteOffset":37444,"target":34962}],"buffers":[{"byteLength":44572,"uri":"SM_Tree_02.bin"}],"images":[{"name":"PolygonNature","uri":"PolygonNature.png"}],"materials":[{"alphaMode":"OPAQUE","doubleSided":false,"extras":{"fromFBX":{"isTruePBR":false,"shadingModel":"Lambert"}},"name":"lambert2","pbrMetallicRoughness":{"baseColorFactor":[0.800000011920929,0.800000011920929,0.800000011920929,1],"baseColorTexture":{"index":0,"texCoord":0},"metallicFactor":0.200000002980232,"roughnessFactor":0.800000011920929}}],"meshes":[{"name":"SM_Tree_02","primitives":[{"attributes":{"COLOR_0":4,"NORMAL":3,"POSITION":2,"TEXCOORD_0":5},"indices":1,"material":0,"mode":4}]}],"nodes":[{"mesh":0,"name":"SM_Tree_02","rotation":[0,0,0,1],"scale":[1,1,1],"translation":[0,0,0]}],"samplers":[{}],"scene":0,"scenes":[{"name":"Root Scene","nodes":[0]}],"textures":[{"name":"file1","sampler":0,"source":0}]}