{"accessors":[{"bufferView":0,"byteOffset":0,"componentType":5126,"count":1,"max":[0],"min":[0],"type":"SCALAR"},{"bufferView":1,"byteOffset":0,"componentType":5123,"count":15852,"type":"SCALAR"},{"bufferView":2,"byteOffset":0,"componentType":5126,"count":9274,"max":[5.93294191360474,10.0489130020142,6.34722900390625],"min":[-6.51010894775391,-1.1427001953125,-6.77281522750854],"type":"VEC3"},{"bufferView":3,"byteOffset":0,"componentType":5126,"count":9274,"type":"VEC3"},{"bufferView":4,"byteOffset":0,"componentType":5126,"count":9274,"type":"VEC4"},{"bufferView":5,"byteOffset":0,"componentType":5126,"count":9274,"type":"VEC2"}],"animations":[{"channels":[],"name":"Take 001","samplers":[]}],"asset":{"generator":"FBX2glTF v0.13.1","version":"2.0"},"bufferViews":[{"buffer":0,"byteLength":4,"byteOffset":0},{"buffer":0,"byteLength":31704,"byteOffset":4,"target":34963},{"buffer":0,"byteLength":111288,"byteOffset":31708,"target":34962},{"buffer":0,"byteLength":111288,"byteOffset":142996,"target":34962},{"buffer":0,"byteLength":148384,"byteOffset":254284,"target":34962},{"buffer":0,"byteLength":74192,"byteOffset":402668,"target":34962}],"buffers":[{"byteLength":476860,"uri":"SM_Tree_Generic_Giant_01_LOD_01.bin"}],"images":[{"name":"PolygonNature","uri":"PolygonNature.png"}],"materials":[{"alphaMode":"OPAQUE","doubleSided":false,"extras":{"fromFBX":{"isTruePBR":false,"shadingModel":"Lambert"}},"name":"Tree1","pbrMetallicRoughness":{"baseColorFactor":[0.800000011920929,0.800000011920929,0.800000011920929,1],"baseColorTexture":{"index":0,"texCoord":0},"metallicFactor":0.200000002980232,"roughnessFactor":0.800000011920929}}],"meshes":[{"name":"SM_Tree_Generic_Giant_01_LOD_01","primitives":[{"attributes":{"COLOR_0":4,"NORMAL":3,"POSITION":2,"TEXCOORD_0":5},"indices":1,"material":0,"mode":4}]}],"nodes":[{"mesh":0,"name":"SM_Tree_Generic_Giant_01_LOD_01","rotation":[0,0,0,1],"scale":[1,1,1],"translation":[0,0,0]}],"samplers":[{}],"scene":0,"scenes":[{"name":"Root Scene","nodes":[0]}],"textures":[{"name":"file1009","sampler":0,"source":0}]}