{"accessors":[{"bufferView":0,"byteOffset":0,"componentType":5126,"count":1,"max":[0],"min":[0],"type":"SCALAR"},{"bufferView":1,"byteOffset":0,"componentType":5123,"count":7020,"type":"SCALAR"},{"bufferView":2,"byteOffset":0,"componentType":5126,"count":5442,"max":[1.97447967529297,5.23996257781982,1.9139518737793],"min":[-1.58349609375,-0.09075427055359,-2.19759750366211],"type":"VEC3"},{"bufferView":3,"byteOffset":0,"componentType":5126,"count":5442,"type":"VEC3"},{"bufferView":4,"byteOffset":0,"componentType":5126,"count":5442,"type":"VEC4"},{"bufferView":5,"byteOffset":0,"componentType":5126,"count":5442,"type":"VEC2"}],"animations":[{"channels":[],"name":"Take 001","samplers":[]}],"asset":{"generator":"FBX2glTF v0.13.1","version":"2.0"},"bufferViews":[{"buffer":0,"byteLength":4,"byteOffset":0},{"buffer":0,"byteLength":14040,"byteOffset":4,"target":34963},{"buffer":0,"byteLength":65304,"byteOffset":14044,"target":34962},{"buffer":0,"byteLength":65304,"byteOffset":79348,"target":34962},{"buffer":0,"byteLength":87072,"byteOffset":144652,"target":34962},{"buffer":0,"byteLength":43536,"byteOffset":231724,"target":34962}],"buffers":[{"byteLength":275260,"uri":"SM_Tree_Generic_Dead_01_LOD_01.bin"}],"images":[{"name":"PolygonNature_01","uri":"../../Textures/PolygonNature_01.png"}],"materials":[{"alphaMode":"OPAQUE","doubleSided":false,"extras":{"fromFBX":{"isTruePBR":false,"shadingModel":"Lambert"}},"name":"lambert6","pbrMetallicRoughness":{"baseColorFactor":[0.800000011920929,0.800000011920929,0.800000011920929,1],"baseColorTexture":{"index":0,"texCoord":0},"metallicFactor":0.200000002980232,"roughnessFactor":0.800000011920929}}],"meshes":[{"name":"SM_Tree_Generic_Dead_01_LOD_01","primitives":[{"attributes":{"COLOR_0":4,"NORMAL":3,"POSITION":2,"TEXCOORD_0":5},"indices":1,"material":0,"mode":4}]}],"nodes":[{"mesh":0,"name":"SM_Tree_Generic_Dead_01_LOD_01","rotation":[0,0,0,1],"scale":[1,1,1],"translation":[0,0,0]}],"samplers":[{}],"scene":0,"scenes":[{"name":"Root Scene","nodes":[0]}],"textures":[{"name":"file1","sampler":0,"source":0}]}