{"accessors":[{"bufferView":0,"byteOffset":0,"componentType":5126,"count":1,"max":[0],"min":[0],"type":"SCALAR"},{"bufferView":1,"byteOffset":0,"componentType":5123,"count":216,"type":"SCALAR"},{"bufferView":2,"byteOffset":0,"componentType":5126,"count":147,"max":[0.188756346702576,4.4505558013916,0.188756346702576],"min":[-0.18875634670258,0.0000000188963724667701,-0.18875634670258],"type":"VEC3"},{"bufferView":3,"byteOffset":0,"componentType":5126,"count":147,"type":"VEC3"},{"bufferView":4,"byteOffset":0,"componentType":5126,"count":147,"type":"VEC4"},{"bufferView":5,"byteOffset":0,"componentType":5126,"count":147,"type":"VEC2"},{"bufferView":6,"byteOffset":0,"componentType":5123,"count":1692,"type":"SCALAR"},{"bufferView":7,"byteOffset":0,"componentType":5126,"count":529,"max":[1.51371002197266,4.59127140045166,1.49019944667816],"min":[-1.47916412353516,0.174640819430351,-1.50480508804321],"type":"VEC3"},{"bufferView":8,"byteOffset":0,"componentType":5126,"count":529,"type":"VEC3"},{"bufferView":9,"byteOffset":0,"componentType":5126,"count":529,"type":"VEC4"},{"bufferView":10,"byteOffset":0,"componentType":5126,"count":529,"type":"VEC2"}],"animations":[{"channels":[],"name":"Take 001","samplers":[]}],"asset":{"generator":"FBX2glTF v0.13.1","version":"2.0"},"bufferViews":[{"buffer":0,"byteLength":4,"byteOffset":0},{"buffer":0,"byteLength":432,"byteOffset":4,"target":34963},{"buffer":0,"byteLength":1764,"byteOffset":436,"target":34962},{"buffer":0,"byteLength":1764,"byteOffset":2200,"target":34962},{"buffer":0,"byteLength":2352,"byteOffset":3964,"target":34962},{"buffer":0,"byteLength":1176,"byteOffset":6316,"target":34962},{"buffer":0,"byteLength":3384,"byteOffset":7492,"target":34963},{"buffer":0,"byteLength":6348,"byteOffset":10876,"target":34962},{"buffer":0,"byteLength":6348,"byteOffset":17224,"target":34962},{"buffer":0,"byteLength":8464,"byteOffset":23572,"target":34962},{"buffer":0,"byteLength":4232,"byteOffset":32036,"target":34962}],"buffers":[{"byteLength":36268,"uri":"SM_Tree_Pine_02_LOD_01.bin"}],"images":[{"name":"PolygonNature_01","uri":"../../Textures/PolygonNature_01.png"},{"name":"Pine2","uri":"Pine2.tga"}],"materials":[{"alphaMode":"OPAQUE","doubleSided":false,"extras":{"fromFBX":{"isTruePBR":false,"shadingModel":"Lambert"}},"name":"lambert11","pbrMetallicRoughness":{"baseColorFactor":[0.800000011920929,0.800000011920929,0.800000011920929,1],"baseColorTexture":{"index":0,"texCoord":0},"metallicFactor":0.200000002980232,"roughnessFactor":0.800000011920929}},{"alphaMode":"OPAQUE","doubleSided":false,"extras":{"fromFBX":{"isTruePBR":false,"shadingModel":"Lambert"}},"name":"lambert12","pbrMetallicRoughness":{"baseColorFactor":[0.800000011920929,0.800000011920929,0.800000011920929,0],"baseColorTexture":{"index":1,"texCoord":0},"metallicFactor":0.200000002980232,"roughnessFactor":0.800000011920929}}],"meshes":[{"name":"SM_Tree_Pine_02_LOD_01","primitives":[{"attributes":{"COLOR_0":4,"NORMAL":3,"POSITION":2,"TEXCOORD_0":5},"indices":1,"material":0,"mode":4},{"attributes":{"COLOR_0":9,"NORMAL":8,"POSITION":7,"TEXCOORD_0":10},"indices":6,"material":1,"mode":4}]}],"nodes":[{"mesh":0,"name":"SM_Tree_Pine_02_LOD_01","rotation":[0,0,0,1],"scale":[1,1,1],"translation":[0,0,0]}],"samplers":[{}],"scene":0,"scenes":[{"name":"Root Scene","nodes":[0]}],"textures":[{"name":"file1","sampler":0,"source":0},{"name":"file957","sampler":0,"source":1}]}