{"accessors":[{"bufferView":0,"byteOffset":0,"componentType":5126,"count":1,"max":[0],"min":[0],"type":"SCALAR"},{"bufferView":1,"byteOffset":0,"componentType":5123,"count":1998,"type":"SCALAR"},{"bufferView":2,"byteOffset":0,"componentType":5126,"count":928,"max":[1.08823394775391,5.408362865448,1.06110906600952],"min":[-1.05206298828125,0.00889642536640167,-1.04482412338257],"type":"VEC3"},{"bufferView":3,"byteOffset":0,"componentType":5126,"count":928,"type":"VEC3"},{"bufferView":4,"byteOffset":0,"componentType":5126,"count":928,"type":"VEC4"},{"bufferView":5,"byteOffset":0,"componentType":5126,"count":928,"type":"VEC2"}],"animations":[{"channels":[],"name":"Take 001","samplers":[]}],"asset":{"generator":"FBX2glTF v0.13.1","version":"2.0"},"bufferViews":[{"buffer":0,"byteLength":4,"byteOffset":0},{"buffer":0,"byteLength":3996,"byteOffset":4,"target":34963},{"buffer":0,"byteLength":11136,"byteOffset":4000,"target":34962},{"buffer":0,"byteLength":11136,"byteOffset":15136,"target":34962},{"buffer":0,"byteLength":14848,"byteOffset":26272,"target":34962},{"buffer":0,"byteLength":7424,"byteOffset":41120,"target":34962}],"buffers":[{"byteLength":48544,"uri":"SM_Tree_Birch_03_LOD_01.bin"}],"images":[{"name":"PolygonNature_01","uri":"../../Textures/PolygonNature_01.png"}],"materials":[{"alphaMode":"OPAQUE","doubleSided":false,"extras":{"fromFBX":{"isTruePBR":false,"shadingModel":"Lambert"}},"name":"lambert3","pbrMetallicRoughness":{"baseColorFactor":[0.800000011920929,0.800000011920929,0.800000011920929,1],"baseColorTexture":{"index":0,"texCoord":0},"metallicFactor":0.200000002980232,"roughnessFactor":0.800000011920929}}],"meshes":[{"name":"SM_Tree_Birch_03_LOD_01","primitives":[{"attributes":{"COLOR_0":4,"NORMAL":3,"POSITION":2,"TEXCOORD_0":5},"indices":1,"material":0,"mode":4}]}],"nodes":[{"mesh":0,"name":"SM_Tree_Birch_03_LOD_01","rotation":[0,0,0,1],"scale":[1,1,1],"translation":[0,0,0]}],"samplers":[{}],"scene":0,"scenes":[{"name":"Root Scene","nodes":[0]}],"textures":[{"name":"file1","sampler":0,"source":0}]}