{"accessors":[{"bufferView":0,"byteOffset":0,"componentType":5126,"count":1,"max":[0],"min":[0],"type":"SCALAR"},{"bufferView":1,"byteOffset":0,"componentType":5123,"count":288,"type":"SCALAR"},{"bufferView":2,"byteOffset":0,"componentType":5126,"count":161,"max":[0.261434763669968,7.44489240646362,0.253157138824463],"min":[-0.25016069412231,0.0000000188963724667701,-0.25843954086304],"type":"VEC3"},{"bufferView":3,"byteOffset":0,"componentType":5126,"count":161,"type":"VEC3"},{"bufferView":4,"byteOffset":0,"componentType":5126,"count":161,"type":"VEC4"},{"bufferView":5,"byteOffset":0,"componentType":5126,"count":161,"type":"VEC2"},{"bufferView":6,"byteOffset":0,"componentType":5123,"count":1692,"type":"SCALAR"},{"bufferView":7,"byteOffset":0,"componentType":5126,"count":531,"max":[1.24271774291992,7.52854061126709,1.17555141448975],"min":[-1.20216751098633,2.38041305541992,-1.16632890701294],"type":"VEC3"},{"bufferView":8,"byteOffset":0,"componentType":5126,"count":531,"type":"VEC3"},{"bufferView":9,"byteOffset":0,"componentType":5126,"count":531,"type":"VEC4"},{"bufferView":10,"byteOffset":0,"componentType":5126,"count":531,"type":"VEC2"}],"animations":[{"channels":[],"name":"Take 001","samplers":[]}],"asset":{"generator":"FBX2glTF v0.13.1","version":"2.0"},"bufferViews":[{"buffer":0,"byteLength":4,"byteOffset":0},{"buffer":0,"byteLength":576,"byteOffset":4,"target":34963},{"buffer":0,"byteLength":1932,"byteOffset":580,"target":34962},{"buffer":0,"byteLength":1932,"byteOffset":2512,"target":34962},{"buffer":0,"byteLength":2576,"byteOffset":4444,"target":34962},{"buffer":0,"byteLength":1288,"byteOffset":7020,"target":34962},{"buffer":0,"byteLength":3384,"byteOffset":8308,"target":34963},{"buffer":0,"byteLength":6372,"byteOffset":11692,"target":34962},{"buffer":0,"byteLength":6372,"byteOffset":18064,"target":34962},{"buffer":0,"byteLength":8496,"byteOffset":24436,"target":34962},{"buffer":0,"byteLength":4248,"byteOffset":32932,"target":34962}],"buffers":[{"byteLength":37180,"uri":"SM_Tree_Pine_Large_01_LOD_01.bin"}],"images":[{"name":"PolygonNature_01","uri":"../../Textures/PolygonNature_01.png"},{"name":"Pine2","uri":"Pine2.tga"}],"materials":[{"alphaMode":"OPAQUE","doubleSided":false,"extras":{"fromFBX":{"isTruePBR":false,"shadingModel":"Lambert"}},"name":"lambert15","pbrMetallicRoughness":{"baseColorFactor":[0.800000011920929,0.800000011920929,0.800000011920929,1],"baseColorTexture":{"index":0,"texCoord":0},"metallicFactor":0.200000002980232,"roughnessFactor":0.800000011920929}},{"alphaMode":"OPAQUE","doubleSided":false,"extras":{"fromFBX":{"isTruePBR":false,"shadingModel":"Lambert"}},"name":"lambert16","pbrMetallicRoughness":{"baseColorFactor":[0.800000011920929,0.800000011920929,0.800000011920929,0],"baseColorTexture":{"index":1,"texCoord":0},"metallicFactor":0.200000002980232,"roughnessFactor":0.800000011920929}}],"meshes":[{"name":"SM_Tree_Pine_Large_01_LOD_01","primitives":[{"attributes":{"COLOR_0":4,"NORMAL":3,"POSITION":2,"TEXCOORD_0":5},"indices":1,"material":0,"mode":4},{"attributes":{"COLOR_0":9,"NORMAL":8,"POSITION":7,"TEXCOORD_0":10},"indices":6,"material":1,"mode":4}]}],"nodes":[{"mesh":0,"name":"SM_Tree_Pine_Large_01_LOD_01","rotation":[0,0,0,1],"scale":[1,1,1],"translation":[0,0,0]}],"samplers":[{}],"scene":0,"scenes":[{"name":"Root Scene","nodes":[0]}],"textures":[{"name":"file1","sampler":0,"source":0},{"name":"file957","sampler":0,"source":1}]}