{"accessors":[{"bufferView":0,"byteOffset":0,"componentType":5126,"count":1,"max":[0],"min":[0],"type":"SCALAR"},{"bufferView":1,"byteOffset":0,"componentType":5123,"count":1998,"type":"SCALAR"},{"bufferView":2,"byteOffset":0,"componentType":5126,"count":991,"max":[1.24253082275391,4.54661130905151,1.16128730773926],"min":[-1.21139526367188,0,-1.12801086902618],"type":"VEC3"},{"bufferView":3,"byteOffset":0,"componentType":5126,"count":991,"type":"VEC3"},{"bufferView":4,"byteOffset":0,"componentType":5126,"count":991,"type":"VEC4"},{"bufferView":5,"byteOffset":0,"componentType":5126,"count":991,"type":"VEC2"}],"animations":[{"channels":[],"name":"Take 001","samplers":[]}],"asset":{"generator":"FBX2glTF v0.13.1","version":"2.0"},"bufferViews":[{"buffer":0,"byteLength":4,"byteOffset":0},{"buffer":0,"byteLength":3996,"byteOffset":4,"target":34963},{"buffer":0,"byteLength":11892,"byteOffset":4000,"target":34962},{"buffer":0,"byteLength":11892,"byteOffset":15892,"target":34962},{"buffer":0,"byteLength":15856,"byteOffset":27784,"target":34962},{"buffer":0,"byteLength":7928,"byteOffset":43640,"target":34962}],"buffers":[{"byteLength":51568,"uri":"SM_Tree_Birch_01_LOD_01.bin"}],"images":[{"name":"Leaves_Generic_Texture","uri":"../../Textures/Leaves/Leaves_Generic_Texture.png"}],"materials":[{"alphaMode":"OPAQUE","doubleSided":false,"extras":{"fromFBX":{"isTruePBR":false,"shadingModel":"Lambert"}},"name":"lambert2","pbrMetallicRoughness":{"baseColorFactor":[0.800000011920929,0.800000011920929,0.800000011920929,0],"baseColorTexture":{"index":0,"texCoord":0},"metallicFactor":0.200000002980232,"roughnessFactor":0.800000011920929}}],"meshes":[{"name":"SM_Tree_Birch_01_LOD_01","primitives":[{"attributes":{"COLOR_0":4,"NORMAL":3,"POSITION":2,"TEXCOORD_0":5},"indices":1,"material":0,"mode":4}]}],"nodes":[{"mesh":0,"name":"SM_Tree_Birch_01_LOD_01","rotation":[0,0,0,1],"scale":[1,1,1],"translation":[0,0,0]}],"samplers":[{}],"scene":0,"scenes":[{"name":"Root Scene","nodes":[0]}],"textures":[{"name":"file1","sampler":0,"source":0}]}